<?xml version="1.0" encoding="utf-8"?>
<!-- Generator: Adobe Illustrator 25.1.0, SVG Export Plug-In . SVG Version: 6.00 Build 0)  -->
<svg version="1.1" id="Layer_3" opacity="0.5" xmlns="http://www.w3.org/2000/svg" xmlns:xlink="http://www.w3.org/1999/xlink"
	 x="0px" y="0px" viewBox="0 0 2000 1000" style="enable-background:new 0 0 2000 1000;" xml:space="preserve">
<style type="text/css">
	.st0{opacity:0.4;clip-path:url(#SVGID_2_);}
	.st1{fill:none;stroke:#26A9E0;stroke-width:2;stroke-miterlimit:10;}
	.st2{fill:none;stroke:#26A9E0;stroke-width:1.9821;stroke-miterlimit:10;}
	.st3{fill:none;stroke:#26A9E0;stroke-width:1.9643;stroke-miterlimit:10;}
	.st4{fill:none;stroke:#26A9E0;stroke-width:1.9464;stroke-miterlimit:10;}
	.st5{fill:none;stroke:#26A9E0;stroke-width:1.9286;stroke-miterlimit:10;}
	.st6{fill:none;stroke:#26A9E0;stroke-width:1.9107;stroke-miterlimit:10;}
	.st7{fill:none;stroke:#26A9E0;stroke-width:1.8929;stroke-miterlimit:10;}
	.st8{fill:none;stroke:#26A9E0;stroke-width:1.875;stroke-miterlimit:10;}
	.st9{fill:none;stroke:#26A9E0;stroke-width:1.8571;stroke-miterlimit:10;}
	.st10{fill:none;stroke:#26A9E0;stroke-width:1.8393;stroke-miterlimit:10;}
	.st11{fill:none;stroke:#26A9E0;stroke-width:1.8214;stroke-miterlimit:10;}
	.st12{fill:none;stroke:#26A9E0;stroke-width:1.8036;stroke-miterlimit:10;}
	.st13{fill:none;stroke:#26A9E0;stroke-width:1.7857;stroke-miterlimit:10;}
	.st14{fill:none;stroke:#26A9E0;stroke-width:1.7679;stroke-miterlimit:10;}
	.st15{fill:none;stroke:#26A9E0;stroke-width:1.75;stroke-miterlimit:10;}
	.st16{fill:none;stroke:#26A9E0;stroke-width:1.7321;stroke-miterlimit:10;}
	.st17{fill:none;stroke:#26A9E0;stroke-width:1.7143;stroke-miterlimit:10;}
	.st18{fill:none;stroke:#26A9E0;stroke-width:1.6964;stroke-miterlimit:10;}
	.st19{fill:none;stroke:#26A9E0;stroke-width:1.6786;stroke-miterlimit:10;}
	.st20{fill:none;stroke:#26A9E0;stroke-width:1.6607;stroke-miterlimit:10;}
	.st21{fill:none;stroke:#26A9E0;stroke-width:1.6429;stroke-miterlimit:10;}
	.st22{fill:none;stroke:#26A9E0;stroke-width:1.625;stroke-miterlimit:10;}
	.st23{fill:none;stroke:#26A9E0;stroke-width:1.6071;stroke-miterlimit:10;}
	.st24{fill:none;stroke:#26A9E0;stroke-width:1.5893;stroke-miterlimit:10;}
	.st25{fill:none;stroke:#26A9E0;stroke-width:1.5714;stroke-miterlimit:10;}
	.st26{fill:none;stroke:#26A9E0;stroke-width:1.5536;stroke-miterlimit:10;}
	.st27{fill:none;stroke:#26A9E0;stroke-width:1.5357;stroke-miterlimit:10;}
	.st28{fill:none;stroke:#26A9E0;stroke-width:1.5179;stroke-miterlimit:10;}
	.st29{fill:none;stroke:#26A9E0;stroke-width:1.5;stroke-miterlimit:10;}
	.st30{fill:none;stroke:#26A9E0;stroke-width:1.4821;stroke-miterlimit:10;}
	.st31{fill:none;stroke:#26A9E0;stroke-width:1.4643;stroke-miterlimit:10;}
	.st32{fill:none;stroke:#26A9E0;stroke-width:1.4464;stroke-miterlimit:10;}
	.st33{fill:none;stroke:#26A9E0;stroke-width:1.4286;stroke-miterlimit:10;}
	.st34{fill:none;stroke:#26A9E0;stroke-width:1.4107;stroke-miterlimit:10;}
	.st35{fill:none;stroke:#26A9E0;stroke-width:1.3929;stroke-miterlimit:10;}
	.st36{fill:none;stroke:#26A9E0;stroke-width:1.375;stroke-miterlimit:10;}
	.st37{fill:none;stroke:#26A9E0;stroke-width:1.3571;stroke-miterlimit:10;}
	.st38{fill:none;stroke:#26A9E0;stroke-width:1.3393;stroke-miterlimit:10;}
	.st39{fill:none;stroke:#26A9E0;stroke-width:1.3214;stroke-miterlimit:10;}
	.st40{fill:none;stroke:#26A9E0;stroke-width:1.3036;stroke-miterlimit:10;}
	.st41{fill:none;stroke:#26A9E0;stroke-width:1.2857;stroke-miterlimit:10;}
	.st42{fill:none;stroke:#26A9E0;stroke-width:1.2679;stroke-miterlimit:10;}
	.st43{fill:none;stroke:#26A9E0;stroke-width:1.25;stroke-miterlimit:10;}
	.st44{fill:none;stroke:#26A9E0;stroke-width:1.2321;stroke-miterlimit:10;}
	.st45{fill:none;stroke:#26A9E0;stroke-width:1.2143;stroke-miterlimit:10;}
	.st46{fill:none;stroke:#26A9E0;stroke-width:1.1964;stroke-miterlimit:10;}
	.st47{fill:none;stroke:#26A9E0;stroke-width:1.1786;stroke-miterlimit:10;}
	.st48{fill:none;stroke:#26A9E0;stroke-width:1.1607;stroke-miterlimit:10;}
	.st49{fill:none;stroke:#26A9E0;stroke-width:1.1429;stroke-miterlimit:10;}
	.st50{fill:none;stroke:#26A9E0;stroke-width:1.125;stroke-miterlimit:10;}
	.st51{fill:none;stroke:#26A9E0;stroke-width:1.1071;stroke-miterlimit:10;}
	.st52{fill:none;stroke:#26A9E0;stroke-width:1.0893;stroke-miterlimit:10;}
	.st53{fill:none;stroke:#26A9E0;stroke-width:1.0714;stroke-miterlimit:10;}
	.st54{fill:none;stroke:#26A9E0;stroke-width:1.0536;stroke-miterlimit:10;}
	.st55{fill:none;stroke:#26A9E0;stroke-width:1.0357;stroke-miterlimit:10;}
	.st56{fill:none;stroke:#26A9E0;stroke-width:1.0179;stroke-miterlimit:10;}
	.st57{fill:none;stroke:#26A9E0;stroke-miterlimit:10;}
</style>
<g>
	<g>
		<defs>
			<rect id="SVGID_1_" width="2000" height="1000"/>
		</defs>
		<clipPath id="SVGID_2_">
			<use xlink:href="#SVGID_1_"  style="overflow:visible;"/>
		</clipPath>
		<g className="st0">
			<g>
				<polyline className="st1" points="4.2,-50.8 807.8,252.8 1143,1000 				"/>
				<polyline className="st2" points="-9.9,-37.3 793.7,266.2 1128.4,1012.5 				"/>
				<polyline className="st3" points="-24,-23.9 779.6,279.7 1113.9,1025 				"/>
				<polyline className="st4" points="-38.1,-10.4 765.5,293.1 1099.3,1037.5 				"/>
				<polyline className="st5" points="-52.2,3 751.4,306.6 1084.8,1049.9 				"/>
				<polyline className="st6" points="-66.3,16.5 737.2,320 1070.2,1062.4 				"/>
				<polyline className="st7" points="-80.4,30 723.1,333.5 1055.7,1074.9 				"/>
				<polyline className="st8" points="-94.5,43.4 709,347 1041.1,1087.4 				"/>
				<polyline className="st9" points="-108.6,56.9 694.9,360.4 1026.6,1099.9 				"/>
				<polyline className="st10" points="-122.8,70.3 680.8,373.9 1012,1112.4 				"/>
				<polyline className="st11" points="-136.9,83.8 666.7,387.3 997.5,1124.8 				"/>
				<polyline className="st12" points="-151,97.2 652.6,400.8 982.9,1137.3 				"/>
				<polyline className="st13" points="-165.1,110.7 638.5,414.2 968.4,1149.8 				"/>
				<polyline className="st14" points="-179.2,124.2 624.4,427.7 953.8,1162.3 				"/>
				<polyline className="st15" points="-193.3,137.6 610.2,441.2 939.3,1174.8 				"/>
				<polyline className="st16" points="-207.4,151.1 596.1,454.6 924.7,1187.3 				"/>
				<polyline className="st17" points="-221.5,164.5 582,468.1 910.2,1199.8 				"/>
				<polyline className="st18" points="-235.6,178 567.9,481.5 895.6,1212.2 				"/>
				<polyline className="st19" points="-249.8,191.4 553.8,495 881.1,1224.7 				"/>
				<polyline className="st20" points="-263.9,204.9 539.7,508.4 866.6,1237.2 				"/>
				<polyline className="st21" points="-278,218.4 525.6,521.9 852,1249.7 				"/>
				<polyline className="st22" points="-292.1,231.8 511.5,535.4 837.5,1262.2 				"/>
				<polyline className="st23" points="-306.2,245.3 497.4,548.8 822.9,1274.7 				"/>
				<polyline className="st24" points="-320.3,258.7 483.2,562.3 808.4,1287.2 				"/>
				<polyline className="st25" points="-334.4,272.2 469.1,575.7 793.8,1299.6 				"/>
				<polyline className="st26" points="-348.5,285.6 455,589.2 779.3,1312.1 				"/>
				<polyline className="st27" points="-362.6,299.1 440.9,602.6 764.7,1324.6 				"/>
				<polyline className="st28" points="-376.8,312.6 426.8,616.1 750.2,1337.1 				"/>
				<polyline className="st29" points="-390.9,326 412.7,629.6 735.6,1349.6 				"/>
				<polyline className="st30" points="-405,339.5 398.6,643 721.1,1362.1 				"/>
				<polyline className="st31" points="-419.1,352.9 384.5,656.5 706.5,1374.5 				"/>
				<polyline className="st32" points="-433.2,366.4 370.4,669.9 692,1387 				"/>
				<polyline className="st33" points="-447.3,379.8 356.2,683.4 677.4,1399.5 				"/>
				<polyline className="st34" points="-461.4,393.3 342.1,696.8 662.9,1412 				"/>
				<polyline className="st35" points="-475.5,406.8 328,710.3 648.3,1424.5 				"/>
				<polyline className="st36" points="-489.6,420.2 313.9,723.8 633.8,1437 				"/>
				<polyline className="st37" points="-503.8,433.7 299.8,737.2 619.3,1449.5 				"/>
				<polyline className="st38" points="-517.9,447.1 285.7,750.7 604.7,1461.9 				"/>
				<polyline className="st39" points="-532,460.6 271.6,764.1 590.2,1474.4 				"/>
				<polyline className="st40" points="-546.1,474 257.5,777.6 575.6,1486.9 				"/>
				<polyline className="st41" points="-560.2,487.5 243.4,791 561.1,1499.4 				"/>
				<polyline className="st42" points="-574.3,501 229.2,804.5 546.5,1511.9 				"/>
				<polyline className="st43" points="-588.4,514.4 215.1,818 532,1524.4 				"/>
				<polyline className="st44" points="-602.5,527.9 201,831.4 517.4,1536.8 				"/>
				<polyline className="st45" points="-616.6,541.3 186.9,844.9 502.9,1549.3 				"/>
				<polyline className="st46" points="-630.8,554.8 172.8,858.3 488.3,1561.8 				"/>
				<polyline className="st47" points="-644.9,568.2 158.7,871.8 473.8,1574.3 				"/>
				<polyline className="st48" points="-659,581.7 144.6,885.2 459.2,1586.8 				"/>
				<polyline className="st49" points="-673.1,595.2 130.5,898.7 444.7,1599.3 				"/>
				<polyline className="st50" points="-687.2,608.6 116.4,912.2 430.1,1611.8 				"/>
				<polyline className="st51" points="-701.3,622.1 102.2,925.6 415.6,1624.2 				"/>
				<polyline className="st52" points="-715.4,635.5 88.1,939.1 401,1636.7 				"/>
				<polyline className="st53" points="-729.5,649 74,952.5 386.5,1649.2 				"/>
				<polyline className="st54" points="-743.6,662.4 59.9,966 371.9,1661.7 				"/>
				<polyline className="st55" points="-757.8,675.9 45.8,979.4 357.4,1674.2 				"/>
				<polyline className="st56" points="-771.9,689.4 31.7,992.9 342.9,1686.7 				"/>
				<polyline className="st57" points="-786,702.8 17.6,1006.4 328.3,1699.2 				"/>
			</g>
			<g>
				<polyline className="st1" points="1996.3,1010 1123.3,728.6 736,-35.4 				"/>
				<polyline className="st2" points="2008.9,993.8 1136.5,712.6 749.4,-50.9 				"/>
				<polyline className="st3" points="2021.5,977.7 1149.7,696.7 762.8,-66.5 				"/>
				<polyline className="st4" points="2034.1,961.5 1162.8,680.7 776.2,-82 				"/>
				<polyline className="st5" points="2046.8,945.4 1176,664.7 789.6,-97.5 				"/>
				<polyline className="st6" points="2059.4,929.3 1189.2,648.8 803,-113.1 				"/>
				<polyline className="st7" points="2072,913.1 1202.4,632.8 816.4,-128.6 				"/>
				<polyline className="st8" points="2084.6,897 1215.5,616.9 829.8,-144.1 				"/>
				<polyline className="st9" points="2097.3,880.8 1228.7,600.9 843.2,-159.6 				"/>
				<polyline className="st10" points="2109.9,864.7 1241.9,584.9 856.6,-175.2 				"/>
				<polyline className="st11" points="2122.5,848.6 1255.1,569 870,-190.7 				"/>
				<polyline className="st12" points="2135.1,832.4 1268.2,553 883.4,-206.2 				"/>
				<polyline className="st13" points="2147.8,816.3 1281.4,537 896.8,-221.8 				"/>
				<polyline className="st14" points="2160.4,800.1 1294.6,521.1 910.2,-237.3 				"/>
				<polyline className="st15" points="2173,784 1307.8,505.1 923.5,-252.8 				"/>
				<polyline className="st16" points="2185.6,767.9 1320.9,489.2 936.9,-268.3 				"/>
				<polyline className="st17" points="2198.3,751.7 1334.1,473.2 950.3,-283.9 				"/>
				<polyline className="st18" points="2210.9,735.6 1347.3,457.2 963.7,-299.4 				"/>
				<polyline className="st19" points="2223.5,719.5 1360.5,441.3 977.1,-314.9 				"/>
				<polyline className="st20" points="2236.1,703.3 1373.6,425.3 990.5,-330.5 				"/>
				<polyline className="st21" points="2248.8,687.2 1386.8,409.4 1003.9,-346 				"/>
				<polyline className="st22" points="2261.4,671 1400,393.4 1017.3,-361.5 				"/>
				<polyline className="st23" points="2274,654.9 1413.2,377.4 1030.7,-377 				"/>
				<polyline className="st24" points="2286.6,638.8 1426.3,361.5 1044.1,-392.6 				"/>
				<polyline className="st25" points="2299.3,622.6 1439.5,345.5 1057.5,-408.1 				"/>
				<polyline className="st26" points="2311.9,606.5 1452.7,329.5 1070.9,-423.6 				"/>
				<polyline className="st27" points="2324.5,590.3 1465.9,313.6 1084.3,-439.2 				"/>
				<polyline className="st28" points="2337.1,574.2 1479,297.6 1097.7,-454.7 				"/>
				<polyline className="st29" points="2349.8,558.1 1492.2,281.7 1111.1,-470.2 				"/>
				<polyline className="st30" points="2362.4,541.9 1505.4,265.7 1124.5,-485.7 				"/>
				<polyline className="st31" points="2375,525.8 1518.6,249.7 1137.9,-501.3 				"/>
				<polyline className="st32" points="2387.6,509.6 1531.8,233.8 1151.3,-516.8 				"/>
				<polyline className="st33" points="2400.3,493.5 1544.9,217.8 1164.7,-532.3 				"/>
				<polyline className="st34" points="2412.9,477.4 1558.1,201.9 1178,-547.9 				"/>
				<polyline className="st35" points="2425.5,461.2 1571.3,185.9 1191.4,-563.4 				"/>
				<polyline className="st36" points="2438.1,445.1 1584.5,169.9 1204.8,-578.9 				"/>
				<polyline className="st37" points="2450.8,428.9 1597.6,154 1218.2,-594.5 				"/>
				<polyline className="st38" points="2463.4,412.8 1610.8,138 1231.6,-610 				"/>
				<polyline className="st39" points="2476,396.7 1624,122.1 1245,-625.5 				"/>
				<polyline className="st40" points="2488.6,380.5 1637.2,106.1 1258.4,-641 				"/>
				<polyline className="st41" points="2501.2,364.4 1650.3,90.1 1271.8,-656.6 				"/>
				<polyline className="st42" points="2513.9,348.3 1663.5,74.2 1285.2,-672.1 				"/>
				<polyline className="st43" points="2526.5,332.1 1676.7,58.2 1298.6,-687.6 				"/>
				<polyline className="st44" points="2539.1,316 1689.9,42.2 1312,-703.2 				"/>
				<polyline className="st45" points="2551.7,299.8 1703,26.3 1325.4,-718.7 				"/>
				<polyline className="st46" points="2564.4,283.7 1716.2,10.3 1338.8,-734.2 				"/>
				<polyline className="st47" points="2577,267.6 1729.4,-5.6 1352.2,-749.7 				"/>
				<polyline className="st48" points="2589.6,251.4 1742.6,-21.6 1365.6,-765.3 				"/>
				<polyline className="st49" points="2602.2,235.3 1755.7,-37.6 1379,-780.8 				"/>
				<polyline className="st50" points="2614.9,219.1 1768.9,-53.5 1392.4,-796.3 				"/>
				<polyline className="st51" points="2627.5,203 1782.1,-69.5 1405.8,-811.9 				"/>
				<polyline className="st52" points="2640.1,186.9 1795.3,-85.4 1419.2,-827.4 				"/>
				<polyline className="st53" points="2652.7,170.7 1808.4,-101.4 1432.6,-842.9 				"/>
				<polyline className="st54" points="2665.4,154.6 1821.6,-117.4 1445.9,-858.4 				"/>
				<polyline className="st55" points="2678,138.4 1834.8,-133.3 1459.3,-874 				"/>
				<polyline className="st56" points="2690.6,122.3 1848,-149.3 1472.7,-889.5 				"/>
				<polyline className="st57" points="2703.2,106.2 1861.1,-165.2 1486.1,-905 				"/>
			</g>
		</g>
	</g>
</g>
</svg>
