<?xml version="1.0" encoding="utf-8"?>
<!-- Generator: Adobe Illustrator 25.1.0, SVG Export Plug-In . SVG Version: 6.00 Build 0)  -->
<svg version="1.1" xmlns="http://www.w3.org/2000/svg" xmlns:xlink="http://www.w3.org/1999/xlink" x="0px" y="0px"
	 viewBox="0 0 1122 1122" style="enable-background:new 0 0 1122 1122;" xml:space="preserve">
<style type="text/css">
	.st0{fill:#72716F;}
	.st1{fill:#F2CB30;}
	.st2{fill:#EAB531;}
	.st3{fill:#58595A;}
	.st4{fill:#F7DB5E;}
	.st5{fill:#3E3D40;}
</style>
<g id="BG">
</g>
<g id="Object">
	<g>
		<g id="XMLID_52_">
			<g id="XMLID_53_">
				<g id="XMLID_56_">
					<path className="st0" d="M650.7,413.5l4.7,17l42.1-11.6l-4.7-17c-23.2-83.9-110.4-133.3-194.3-110.1
						C414.6,314.9,365.2,402.1,388.4,486l38.5,139.1l42.1-11.6l-38.5-139.1c-16.8-60.7,18.9-123.8,79.7-140.6
						S633.9,352.7,650.7,413.5z"/>
				</g>
				<g id="XMLID_54_">
					<path id="XMLID_55_" className="st1" d="M785.7,819.1c0,9.3-7.6,16.9-16.9,16.9H353.2c-9.3,0-16.9-7.6-16.9-16.9V549
						c0-9.3,7.6-16.9,16.9-16.9h415.6c9.3,0,16.9,7.6,16.9,16.9V819.1z"/>
				</g>
			</g>
		</g>
		<path className="st2" d="M785.7,819.1V653.6C648.8,769.5,451.4,813,339.5,829c3.1,4.2,8,7,13.7,7h415.6
			C778.2,836,785.7,828.4,785.7,819.1z"/>
		<path className="st3" d="M598.1,638.3c0-20.5-16.6-37.1-37.1-37.1s-37.1,16.6-37.1,37.1c0,12.2,5.9,23,15.1,29.8l-11.8,84h67.8
			l-11.8-84C592.2,661.3,598.1,650.5,598.1,638.3z"/>
		<path className="st4" d="M352.7,564.1v58.2c1.5-24.7,13.4-78.4,87.7-78.4H373C361.8,543.9,352.7,553,352.7,564.1z"/>
		<path className="st5" d="M527.1,752.1c0,0,50.3-14.2,56-84l11.8,84H527.1z"/>
	</g>
</g>
</svg>
