<svg xmlns="http://www.w3.org/2000/svg" viewBox="0 0 430 430">
  <g style="isolation: isolate">
    <g id="Warstwa_1" data-name="Warstwa 1">
      <g>
        <path d="M66.4,155a160.24,160.24,0,1,0,308.82,60h0A160.25,160.25,0,0,0,66.4,155Z" style="fill: #ebe6ef"/>
        <path d="M176.53,289.36a4.48,4.48,0,0,1-3.14-1.27c-.29-.28-29.08-28.27-57.4-56.49a4.5,4.5,0,1,1,6.35-6.37c22.89,22.8,46.09,45.46,54.26,53.42,17-15.83,98.54-92.09,137-132.4l.5-.53a4.5,4.5,0,0,1,6.65,6.07l-.62.66c-43.11,45.11-139.62,134.81-140.59,135.71A4.48,4.48,0,0,1,176.53,289.36Z" style="fill: #08a88a"/>
        <path d="M200.74,349.16A160.15,160.15,0,0,1,170,61.2a160.23,160.23,0,1,0,128.7,290.44A159.5,159.5,0,0,1,200.74,349.16Z" style="fill: #ebe6ef;opacity: 0.5;mix-blend-mode: multiply"/>
      </g>
    </g>
  </g>
</svg>