<?xml version="1.0" encoding="utf-8"?>
<!-- Generator: Adobe Illustrator 25.1.0, SVG Export Plug-In . SVG Version: 6.00 Build 0)  -->
<svg version="1.1" xmlns="http://www.w3.org/2000/svg" xmlns:xlink="http://www.w3.org/1999/xlink" x="0px" y="0px"
	 viewBox="0 0 750 500" style="enable-background:new 0 0 750 500;" xml:space="preserve">
<style type="text/css">
	.st0{fill:none;stroke:#DED8D5;stroke-width:1.9678;stroke-miterlimit:10;}
	.st1{fill:#FFB1A5;}
	.st2{fill:#EAD254;}
	.st3{fill:#00857B;}
	.st4{fill:#EDEDED;}
	.st5{fill:#C98BD2;}
	.st6{fill:none;stroke:#FFFFFF;stroke-width:1.6466;stroke-linecap:round;stroke-linejoin:round;stroke-miterlimit:10;}
	.st7{fill:#FFFFFF;}
	.st8{fill:#56DFED;}
	.st9{fill:none;stroke:#FFFFFF;stroke-width:1.1803;stroke-miterlimit:10;}
	.st10{clip-path:url(#SVGID_2_);}
	.st11{fill:#8E716C;}
	.st12{fill:none;stroke:#282828;stroke-width:1.2333;stroke-linecap:round;stroke-linejoin:round;stroke-miterlimit:10;}
	.st13{fill:#F3978E;}
	.st14{fill:#372F5F;}
	.st15{fill:#261B43;}
	.st16{fill:#E6E6E6;}
	.st17{fill:#282828;}
	.st18{fill:none;stroke:#282828;stroke-width:0.9928;stroke-linecap:round;stroke-linejoin:round;stroke-miterlimit:10;}
	.st19{fill:none;stroke:#282828;stroke-width:1.2316;stroke-linecap:round;stroke-linejoin:round;stroke-miterlimit:10;}
	.st20{fill:none;stroke:#C98BD2;stroke-width:1.3423;stroke-miterlimit:10;}
	.st21{fill:none;stroke:#282828;stroke-width:1.2298;stroke-linecap:round;stroke-linejoin:round;stroke-miterlimit:10;}
	.st22{fill:#005683;}
	.st23{fill:none;stroke:#282828;stroke-width:1.3968;stroke-linecap:round;stroke-linejoin:round;stroke-miterlimit:10;}
	.st24{fill:none;stroke:#282828;stroke-width:1.5317;stroke-linecap:round;stroke-linejoin:round;stroke-miterlimit:10;}
	.st25{fill:none;stroke:#FFFFFF;stroke-width:1.9514;stroke-miterlimit:10;}
	.st26{font-family:'ArialRoundedMTBold';}
	.st27{font-size:14px;}
</style>
<g id="BACKGROUND">
</g>
<g id="OBJECTS">
	<g>
		<g>
			<g>
				<g>
					<line className="st0" x1="126" y1="158.7" x2="625.3" y2="158.7"/>
					<path className="st0" d="M618.8,434.9H132.5c-3.6,0-6.5-2.9-6.5-6.5V132.5c0-3.6,2.9-6.5,6.5-6.5h486.3c3.6,0,6.5,2.9,6.5,6.5
						v295.9C625.3,432,622.4,434.9,618.8,434.9z"/>
					<g>
						<path className="st1" d="M158.9,142.6c0,2.5-2,4.6-4.6,4.6c-2.5,0-4.6-2-4.6-4.6c0-2.5,2-4.6,4.6-4.6
							C156.8,138.1,158.9,140.1,158.9,142.6z"/>
						<path className="st2" d="M176.6,142.6c0,2.5-2,4.6-4.6,4.6c-2.5,0-4.6-2-4.6-4.6c0-2.5,2-4.6,4.6-4.6
							C174.6,138.1,176.6,140.1,176.6,142.6z"/>
						<path className="st3" d="M194.4,142.6c0,2.5-2,4.6-4.6,4.6s-4.6-2-4.6-4.6c0-2.5,2-4.6,4.6-4.6S194.4,140.1,194.4,142.6z"/>
					</g>
				</g>
			</g>
			<g>
				<g>
					<g>
						<g>
							<path className="st4" d="M690.2,268.9H572.9c-3.3,0-6-2.7-6-6V154.4c0-3.3,2.7-6,6-6h117.4c3.3,0,6,2.7,6,6v108.5
								C696.2,266.3,693.5,268.9,690.2,268.9z"/>
							<path className="st0" d="M690.2,268.9H572.9c-3.3,0-6-2.7-6-6V154.4c0-3.3,2.7-6,6-6h117.4c3.3,0,6,2.7,6,6v108.5
								C696.2,266.3,693.5,268.9,690.2,268.9z"/>
						</g>
					</g>
				</g>
				<g>
					<g>
						<g>
							<g>
								<path className="st5" d="M601.2,237.6h61c3.3,0,6-2.7,6-6v-50c0-3.3-2.7-6-6-6h-61c-3.3,0-6,2.7-6,6v50
									C595.2,234.9,597.9,237.6,601.2,237.6z"/>
							</g>
						</g>
					</g>
					<g>
						<polygon className="st6" points="648.4,216.9 619.8,216.9 614.7,216.9 614.7,194.3 648.4,194.3 648.4,199.9 						"/>
						<polyline className="st6" points="614.7,194.3 631.5,207.6 648.4,194.3 						"/>
					</g>
				</g>
			</g>
			<g>
				<g>
					<g>
						<g>
							<path className="st4" d="M173.7,359.8H61.8c-3.2,0-5.7-2.6-5.7-5.7v-97.6c0-3.2,2.6-5.7,5.7-5.7h111.9c3.2,0,5.7,2.6,5.7,5.7
								v97.6C179.5,357.3,176.9,359.8,173.7,359.8z"/>
							<path className="st0" d="M173.7,359.8H61.8c-3.2,0-5.7-2.6-5.7-5.7v-97.6c0-3.2,2.6-5.7,5.7-5.7h111.9c3.2,0,5.7,2.6,5.7,5.7
								v97.6C179.5,357.3,176.9,359.8,173.7,359.8z"/>
						</g>
					</g>
				</g>
				<g>
					<path className="st1" d="M146.5,338.8h-58c-3.7,0-6.6-3-6.6-6.6v-56.1c0-3.7,3-6.6,6.6-6.6h58c3.7,0,6.6,3,6.6,6.6v56.1
						C153.2,335.9,150.2,338.8,146.5,338.8z"/>
					<g>
						<path className="st7" d="M103.7,290.5c-7.8,7.8-7.8,20.7,0,28.5c7.8,7.8,20.7,7.8,28.5,0c7.8-7.8,7.8-20.7,0-28.5
							C124.4,282.7,111.5,282.7,103.7,290.5z M132.1,293.4h-6.4c-0.6-2-1.5-4-2.5-6.1C126.8,288.5,129.9,290.6,132.1,293.4z
							 M110.5,303.6c0-2.6,0.3-5.2,1-7.8h12.9c0.6,2.6,1,5.2,1,7.8H110.5z M125.3,306c-0.2,2.6-0.6,5.2-1.4,7.8H112
							c-0.7-2.6-1.2-5.2-1.4-7.8H125.3z M117.9,286.6c1,0,1.9,0.1,2.8,0.2c1.2,2.2,2.2,4.4,2.9,6.6h-11.5c0.7-2.2,1.7-4.4,2.9-6.6
							C116,286.7,117,286.6,117.9,286.6z M112.6,287.4c-1,2-1.9,4-2.5,6.1h-6.4C106,290.6,109.1,288.5,112.6,287.4z M102.1,295.8
							h7.4c-0.6,2.6-1,5.2-1,7.8h-8.7C100,300.8,100.8,298.1,102.1,295.8z M102.1,313.8c-1.3-2.3-2.2-5-2.3-7.8h8.7
							c0.1,2.6,0.5,5.2,1.2,7.8H102.1z M103.7,316.2h6.7c0.7,2,1.5,4.1,2.5,6.1C109.2,321.2,106,319.1,103.7,316.2z M117.9,323
							c-0.8,0-1.6-0.1-2.4-0.2c-1.1-2.2-2.1-4.5-2.8-6.7h10.4c-0.8,2.2-1.7,4.5-2.8,6.7C119.5,322.9,118.7,323,117.9,323z
							 M123,322.3c1-2,1.8-4.1,2.5-6.1h6.7C129.8,319.1,126.6,321.2,123,322.3z M133.7,313.8h-7.6c0.7-2.6,1.1-5.2,1.2-7.8h8.7
							C135.9,308.8,135.1,311.5,133.7,313.8z M136.1,303.6h-8.7c0-2.6-0.4-5.2-1-7.8h7.4C135.1,298.1,135.9,300.8,136.1,303.6z"/>
					</g>
				</g>
			</g>
		</g>
		<g>
			<path className="st5" d="M167.1,97.4H65.7c-2.1,0-3.8-1.7-3.8-3.8l0,0c0-2.1,1.7-3.8,3.8-3.8h101.4c2.1,0,3.8,1.7,3.8,3.8l0,0
				C170.9,95.7,169.2,97.4,167.1,97.4z"/>
			<path className="st8" d="M694.3,345.1h-49.2c-2.1,0-3.8-1.7-3.8-3.8l0,0c0-2.1,1.7-3.8,3.8-3.8h49.2c2.1,0,3.8,1.7,3.8,3.8l0,0
				C698.1,343.4,696.4,345.1,694.3,345.1z"/>
			<path className="st5" d="M659.9,389h-6c-1.6,0-2.9-1.3-2.9-2.9v-5.6c0-1.6,1.3-2.9,2.9-2.9h6c1.6,0,2.9,1.3,2.9,2.9v5.6
				C662.7,387.7,661.5,389,659.9,389z"/>
			<path className="st1" d="M89.8,415.3h-6c-1.6,0-2.9-1.3-2.9-2.9v-5.6c0-1.6,1.3-2.9,2.9-2.9h6c1.6,0,2.9,1.3,2.9,2.9v5.6
				C92.7,414,91.4,415.3,89.8,415.3z"/>
			<g>
				<g>
					<path className="st1" d="M550.1,93.5H450c-1.7,0-3-1.3-3-3V66.1c0-1.7,1.3-3,3-3h100.1c1.7,0,3,1.3,3,3v24.4
						C553.1,92.2,551.8,93.5,550.1,93.5z"/>
					<g>
						<line className="st9" x1="461.5" y1="73.9" x2="532.6" y2="73.9"/>
						<line className="st9" x1="461.5" y1="81.2" x2="490.5" y2="81.2"/>
					</g>
				</g>
				<polygon className="st1" points="458.6,90.1 458.6,101.9 473.5,90.1 				"/>
			</g>
			<g>
				<g>
					<g>
						<g>
							<g>
								<g>
									<path className="st8" d="M304.2,95.3h-48.4c-4.7,0-8.5-3.8-8.5-8.5v-45c0-3.6,2.9-6.5,6.5-6.5h50.5c3.6,0,6.5,2.9,6.5,6.5v47.1
										C310.7,92.4,307.8,95.3,304.2,95.3z"/>
								</g>
							</g>
						</g>
					</g>
				</g>
				<g>
					<path className="st7" d="M293.8,69.8l-3.6-3.6c-0.6-0.7-1.5-1.1-2.3-1.1c-0.8,0-1.7,0.4-2.3,1l-2.1,2.1c-0.1-0.1-0.3-0.1-0.4-0.2
						c-0.3-0.1-0.5-0.2-0.6-0.3c-1.9-1.2-3.7-2.8-5.4-4.9c-0.8-1-1.4-1.9-1.7-2.6c0.5-0.5,1-1,1.4-1.4c0.2-0.2,0.4-0.4,0.6-0.6
						c0.7-0.7,1.1-1.5,1.1-2.4c0-0.8-0.4-1.7-1.1-2.4l-1.8-1.8c-0.2-0.2-0.4-0.4-0.6-0.6c-0.4-0.4-0.8-0.8-1.2-1.2
						c-0.6-0.6-1.5-1-2.3-1c-0.8,0-1.6,0.3-2.3,1l-2.3,2.3c-0.8,0.8-1.4,1.9-1.5,3.2c-0.1,1.9,0.4,3.7,0.8,4.9c1,3,2.6,5.6,5,8.4
						c2.9,3.4,6.3,6.1,10.3,8.1c1.5,0.7,3.5,1.5,5.8,1.7c0.1,0,0.3,0,0.5,0c1.5,0,2.8-0.6,3.9-1.7c0,0,0,0,0.1-0.1
						c0.3-0.4,0.7-0.8,1.2-1.2c0.3-0.3,0.6-0.6,0.8-0.8C295.1,73,295.1,71.1,293.8,69.8z M292.3,73.1c-0.3,0.3-0.5,0.5-0.8,0.8
						c-0.5,0.4-0.8,0.8-1.3,1.3c-0.6,0.6-1.4,1-2.3,1c-0.1,0-0.2,0-0.3,0c-1.9-0.1-3.7-0.9-5-1.5c-3.7-1.8-6.9-4.3-9.6-7.5
						c-2.2-2.6-3.7-5.2-4.7-7.8c-0.6-1.5-0.9-2.8-0.8-4c0.1-0.7,0.3-1.4,0.9-1.9l2.2-2.2c0.2-0.2,0.5-0.5,0.9-0.5
						c0.4,0,0.6,0.2,0.9,0.5c0.4,0.4,0.8,0.8,1.2,1.2c0.2,0.2,0.4,0.5,0.6,0.6l1.8,1.8c0.2,0.2,0.5,0.6,0.5,0.9
						c0,0.4-0.3,0.7-0.5,0.9c-0.2,0.2-0.4,0.4-0.6,0.6c-0.6,0.6-1.1,1.1-1.6,1.6c0,0,0,0-0.1,0.1c-0.6,0.6-0.5,1.2-0.4,1.6v0.1
						c0.5,1.2,1.2,2.2,2.1,3.5c1.8,2.3,3.7,4,5.9,5.4c0.3,0.2,0.6,0.3,0.8,0.5c0.3,0.1,0.5,0.2,0.6,0.3l0.1,0.1
						c0.6,0.3,1.3,0.2,1.8-0.3l2.3-2.3c0.2-0.2,0.5-0.5,0.9-0.5c0.3,0,0.6,0.3,0.8,0.5l3.6,3.6C292.9,71.8,292.9,72.5,292.3,73.1z"
						/>
				</g>
			</g>
		</g>
	</g>
	<g>
		<defs>
			<rect id="SVGID_1_" x="172" y="101.4" width="459.3" height="332.7"/>
		</defs>
		<clipPath id="SVGID_2_">
			<use xlink:href="#SVGID_1_"  style="overflow:visible;"/>
		</clipPath>
		<g className="st10">
			<g>
				<g>
					<path className="st11" d="M515,322.6l-36.5-4.9l0.3,3.6l-31.2,4.2c0,0-20.1,50.5-2.4,161.5h25.4l9.1-112.5h3.2l8.8,112.5h25.4
						C534.9,376,515,322.6,515,322.6z"/>
					<line className="st12" x1="468.1" y1="374.4" x2="494.6" y2="374.4"/>
				</g>
				<g>
					<g>
						<g>
							<g>
								<path className="st1" d="M536.3,269.3c-3.1-5-20.7-4.8-21.6-4.9c-4.7-0.6,3,37.2,12.9,70.2c1.9,6.3,8.8,9.6,14.9,7
									c0.1,0,0.1-0.1,0.2-0.1c4.8-2,7.5-7.1,6.6-12.3C544.6,304.4,539.9,275.1,536.3,269.3z"/>
							</g>
							<polygon className="st13" points="540.5,283 518.1,291.7 516,281.1 539.2,275.3 							"/>
							<path className="st13" d="M544.7,304.2c0,0-10.6,14.2-10.1,13.6c0.5-0.7,8.3-23,8.3-23L544.7,304.2z"/>
						</g>
						<g>
							<path className="st1" d="M559.9,285.1l-30.4,39.4c-4,5.2-2.7,12.7,2.8,16.2h0c5.5,3.6,12.8,1.7,15.9-4.1l25.3-46.7L559.9,285.1z"
								/>
							<g>
								<path className="st1" d="M567.7,295.2c-6.6-2.1-10.2-9.2-8.1-15.8c2.1-6.6,9.2-10.2,15.8-8.1c6.6,2.1,10.2,9.2,8.1,15.8
									C581.4,293.7,574.3,297.3,567.7,295.2z"/>
								<path className="st1" d="M580.7,275.7c0,0,3.4-3.6-2.7-6.1c-6.1-2.5-13.6-1.9-18.4,9.7L580.7,275.7z"/>
							</g>
							<g>
								<path className="st14" d="M587,250.8l12.7,5.5c0.7,0.3,1,1.1,0.6,1.9l-16.8,31.3c-0.4,0.7-1.3,1.1-2,0.8l-12.7-5.5
									c-0.7-0.3-1-1.1-0.6-1.9l16.8-31.3C585.4,250.9,586.3,250.5,587,250.8z"/>
								<path className="st15" d="M585.8,250.3l12.7,5.5c0.7,0.3,1,1.1,0.6,1.9L582.4,289c-0.4,0.7-1.3,1.1-2,0.8l-12.7-5.5
									c-0.7-0.3-1-1.1-0.6-1.9l16.8-31.3C584.2,250.3,585.1,250,585.8,250.3z"/>
								<polygon className="st16" points="584.4,253.5 595.6,258.3 581.9,283.8 570.7,279 								"/>
								<polygon className="st7" points="595.6,258.3 570.7,279 584.4,253.5 								"/>
							</g>
							<path className="st1" d="M574.4,268.6c0,0,2.8,0.6,5.4,2c1.1,0.6,1.7,1.9,1.4,3.2l0,0c-0.3,1.1-1.2,2-2.4,2.1l-6.6,0.8
								c0,0-3.5,6-8,6.6l4.1-10.5L574.4,268.6z"/>
						</g>
					</g>
					<g>
						<g>
							<path className="st8" d="M489.9,219.7c-0.7,0,46.9,6.6,54.8,61l-24.7,3.8l-5,41h-69l-13.7-75.8c0,0,15.3-21.9,43.7-30H489.9z"/>
							<line className="st12" x1="520" y1="284.5" x2="522.1" y2="260.7"/>
						</g>
					</g>
				</g>
				<g>
					<path className="st1" d="M494.4,220.5v-18.9h-22.1v19.1c-1.1,0.3-3,1-5.9,2.4l17.3,10.3l17.6-10.3
						C501.2,223.1,498.4,221.5,494.4,220.5z"/>
					<path className="st17" d="M472.1,203.9c0,0,4,10.6,14.6,9.6c9.7-0.8,8.2-15.5,8.2-15.5L472.1,203.9z"/>
					<g>
						<path className="st13" d="M462.4,189.9c-3.5,3.1-11.2-8.8-7.9-12.1c3.4-3.3,5.9,1.9,5.9,1.9l1.5,3.6l1.1,4.8l0.3,1.3L462.4,189.9z
							"/>
						<g>
							<g>
								<path className="st18" d="M456.2,182c0,0,2.6-1.2,5,2.6"/>
							</g>
						</g>
					</g>
					<g>
						<path className="st13" d="M503.4,189.5c3.2,3.4,11.9-7.8,8.9-11.4c-3.1-3.6-6,1.4-6,1.4l-1.8,3.4l-1.5,4.7l-0.4,1.2L503.4,189.5z"
							/>
						<g>
							<g>
								<path className="st18" d="M510.3,182.2c0,0-2.5-1.4-5.2,2.2"/>
							</g>
						</g>
					</g>
					<g>
						<path className="st17" d="M456.3,166.4c0,15.8,12,23.3,26.9,23.3s26.9-7.5,26.9-23.3c0-15.8-12-26.5-26.9-26.5
							S456.3,150.6,456.3,166.4z"/>
					</g>
					<path className="st1" d="M460,167.5c0,9.7,1.4,18.1,2.7,24c1.3,5.8,5.1,9.9,10.4,13.1l1,0.6c5.6,3.5,12.9,3.5,18.6,0.2l0,0
						c5.8-3.4,9.8-7.8,11.1-14c2.3-11.3,2.5-23.9,2.5-23.9s2.2-24.5-22.8-24C458.5,143.9,460,167.5,460,167.5z"/>
					<g>
						<path className="st19" d="M481.6,181.4v3.4c0,0.2,0,0.4,0.1,0.6c0.3,0.7,1.1,1,1.8,0.8l1.6-0.4"/>
						<path className="st17" d="M477.7,168.3l-12.4,2.9c0,0,0.6-3.2,5.6-4.3C476,165.8,477.7,168.3,477.7,168.3z"/>
						<path className="st17" d="M488.7,168.3l12,2.9c0,0-0.5-3.2-5.4-4.3C490.3,165.8,488.7,168.3,488.7,168.3z"/>
						<ellipse className="st17" cx="473" cy="177.4" rx="2.1" ry="2.1"/>
						<path className="st17" d="M494.9,177.4c0,1.2-0.9,2.1-2.1,2.1c-1.2,0-2.1-0.9-2.1-2.1s0.9-2.1,2.1-2.1
							C494,175.3,494.9,176.3,494.9,177.4z"/>
						<path className="st7" d="M475.1,190.2h16.1C491.2,190.2,484,198.9,475.1,190.2z"/>
						<g>
							
								<ellipse transform="matrix(0.7071 -0.7071 0.7071 0.7071 12.2341 386.0138)" className="st20" cx="472.1" cy="178.2" rx="8.9" ry="8.9"/>
							
								<ellipse transform="matrix(0.7071 -0.7071 0.7071 0.7071 18.6413 401.4823)" className="st20" cx="494" cy="178.2" rx="8.9" ry="8.9"/>
							<path className="st20" d="M481,178.2c0,0,2.1-2,4.1,0"/>
							<line className="st20" x1="463.2" y1="178.2" x2="460.4" y2="178.2"/>
							<line className="st20" x1="502.9" y1="178.2" x2="505.7" y2="178.2"/>
						</g>
					</g>
					<path className="st17" d="M506,175.6c0,0-10-13.5-7.7-27.2c0,0,7.4,3.7,9.3,13.4C509.6,171.4,506,175.6,506,175.6z"/>
					<path className="st17" d="M460,176.5c0,0,11.6-15.3,9.3-29c0,0-8,4.6-10,14.3C457.4,171.4,460,176.5,460,176.5z"/>
					<path className="st17" d="M505.2,153.8c0,0-12.8,14-47.9,11.6c0,0,5.4-20.6,22.4-22.8C479.6,142.6,499.3,140.3,505.2,153.8z"/>
					
						<ellipse transform="matrix(0.1594 -0.9872 0.9872 0.1594 288.2938 613.3089)" className="st17" cx="504.3" cy="137.4" rx="16.8" ry="16.8"/>
				</g>
			</g>
			<g>
				<path className="st17" d="M299.7,322.5l-31.2-4.2l0.3-3.6l-36.5,4.9c0,0-19.9,53.4-2.2,164.4h25.4l8.8-112.5h3.2l9.1,112.5h25.4
					C319.8,373,299.7,322.5,299.7,322.5z"/>
				<g>
					<path className="st17" d="M297.2,170.7c-4.2-5-7.6-10.8-10.5-18.9c-3.1-8.7-13.2-5.2-13.2-5.2s-8.4-10.8-21.1-7.1
						c-12.7,3.8-17.1,12.8-17.3,23.5c-0.3,10.7-8.7,12.4-15.2,24.8c-11.5,21.9,7.8,40.3,43,35.2l0-0.3c3.5,1.1,7.7,1.5,12.9,1.2
						C318,221.4,314,190.4,297.2,170.7z"/>
					<g>
						<path className="st13" d="M283.4,186.9c3.5,3.1,11.2-8.8,7.9-12.1s-5.9,1.9-5.9,1.9l-1.5,3.6l-1.1,4.8l-0.3,1.3L283.4,186.9z"/>
						<g>
							<g>
								<path className="st18" d="M289.7,179c0,0-2.6-1.2-5,2.6"/>
							</g>
						</g>
					</g>
					<g>
						<path className="st13" d="M242.4,186.6c-3.2,3.4-11.9-7.8-8.9-11.4c3.1-3.6,6,1.4,6,1.4l1.8,3.4l1.5,4.7l0.4,1.2L242.4,186.6z"/>
						<g>
							<g>
								<path className="st18" d="M235.5,179.2c0,0,2.5-1.4,5.2,2.2"/>
							</g>
						</g>
					</g>
					<g>
						<path className="st17" d="M289.5,163.4c0,15.8-12,23.3-26.9,23.3c-14.9,0-26.9-7.5-26.9-23.3s12-26.5,26.9-26.5
							C277.5,136.9,289.5,147.6,289.5,163.4z"/>
					</g>
					<rect x="251.4" y="198.7" className="st1" width="22.1" height="28.7"/>
					<path className="st17" d="M248.2,196.9c0,0,6.2,12.3,13.7,14.2c2,0.5,4.2,0.3,6.1-0.4c2.9-1,6.5-5.3,7.1-10l0.3-2.7
						C275.5,198.1,262,205.4,248.2,196.9z"/>
					<path className="st1" d="M285.8,164.5c0,9.7-1.4,18.1-2.7,24c-1.3,5.8-5.1,9.9-10.4,13.1l-1,0.6c-5.6,3.5-12.9,3.5-18.6,0.2v0
						c-5.8-3.4-9.8-7.8-11.1-14c-2.3-11.3-2.5-23.9-2.5-23.9s-2.2-24.5,22.8-24S285.8,164.5,285.8,164.5z"/>
					<g>
						<path className="st21" d="M260.9,179.8v2c0,0.2,0,0.4,0.1,0.6c0.3,0.7,1.1,1,1.8,0.8l1.6-0.4"/>
						<path className="st17" d="M266.1,166.5l13.3,3.1c0,0-0.6-3.4-6-4.7C268,163.8,266.1,166.5,266.1,166.5z"/>
						<path className="st17" d="M259.2,166.5l-13.5,3.1c0,0,0.6-3.4,6.1-4.7C257.3,163.8,259.2,166.5,259.2,166.5z"/>
						<path className="st17" d="M254.3,174.8c0,1.1-0.9,2.1-2.1,2.1c-1.2,0-2.1-0.9-2.1-2.1c0-1.1,0.9-2.1,2.1-2.1
							C253.4,172.7,254.3,173.6,254.3,174.8z"/>
						<path className="st17" d="M274.2,174.8c0,1.1-0.9,2.1-2.1,2.1c-1.2,0-2.1-0.9-2.1-2.1c0-1.1,0.9-2.1,2.1-2.1
							C273.3,172.7,274.2,173.6,274.2,174.8z"/>
						<path className="st7" d="M253,186.7h18.4c0,0-1.3,5-9.6,5C255.4,191.7,253,186.7,253,186.7z"/>
					</g>
					<path className="st17" d="M239.8,172.6c0,0,10-13.5,7.7-27.2c0,0-7.4,3.7-9.3,13.4C236.2,168.4,239.8,172.6,239.8,172.6z"/>
					<path className="st17" d="M285.9,172.2c0,0-11.6-14-9.3-27.7c0,0,8,4.6,10,14.3S285.9,172.2,285.9,172.2z"/>
					<path className="st17" d="M240.7,150.8c0,0,11.5,15.4,46.6,13c0,0-4-22-21-24.2C266.2,139.7,246.6,137.3,240.7,150.8z"/>
				</g>
				<g>
					<g>
						<g>
							<path className="st1" d="M208.7,390.3c-0.5,0.8,29.2-129.3,20.4-127.3c-0.8,0.2-16.3,1.6-18.6,6.3
								c-6.7,13.5-11.4,120.1-11.4,120.1L208.7,390.3z"/>
							<path className="st1" d="M199.1,389.3c0,0-4.8,22.2,13.3,24.7c1.2,0.2,2.3-0.5,2.7-1.7l0.1-0.2c0.4-1.3-0.2-2.6-1.4-3.1
								c-3-1.3-7.5-4.7-5.3-12.2c0,0,2.6-0.3,4.1,4.6c0.4,1.3,1.8,1.9,3,1.3l0,0c0.8-0.4,1.2-1.3,1.1-2.1
								c-0.4-3.4-2.2-11.7-8.8-13.9L199.1,389.3z"/>
						</g>
						<path className="st13" d="M205.2,300.5c0,0,17.1,24.1,17.2,23.6c0.1-0.5,6-33.9,6-33.9l-20.8-9L205.2,300.5z"/>
					</g>
					<g>
						<path className="st3" d="M252.8,222.6c0.7,0-42.3,0.8-50.2,55.1l24.7,3.8l5,41h69l13.7-75.8c0,0-9.7-16.4-38.1-24.5L252.8,222.6z"
							/>
						<path className="st1" d="M231.7,229.2c0,0,6.1,8.1,31,8.1c24.7,0,31-8.5,31-8.5s-14.6-8.1-31.5-10.8
							C262.3,218,247.2,220.7,231.7,229.2z"/>
					</g>
				</g>
			</g>
			<g>
				<g>
					<g>
						<polygon className="st22" points="316.4,401.4 316.5,509.8 370.1,509.8 374.2,401.4 						"/>
						<polygon className="st22" points="432.9,401.4 432.8,509.8 379.2,509.8 375,401.4 						"/>
						<rect x="348.1" y="401.4" className="st22" width="55.4" height="37.7"/>
					</g>
					<line className="st23" x1="355.9" y1="439" x2="394.1" y2="439"/>
				</g>
				<g>
					<g>
						<g>
							<path className="st1" d="M466.7,306.8c3.3,36.7-0.2,63.5,0.8,131.1l-32,1.3l-4.8-126.5L466.7,306.8z"/>
							<path className="st13" d="M434.7,335.4c0,0,19.8-1.8,33.4-10.8l-0.4-7.9l-33,4.5L434.7,335.4z"/>
						</g>
						<path className="st5" d="M402.9,222.2c0,0,63,15.8,74.4,95.7c0,0-30.8,13.4-61.7,7.6l6.9-26.7L402.9,222.2z"/>
					</g>
					<g>
						<g>
							<path className="st1" d="M214.8,255.4l46.9,55.4l-14.3,40.4c0,0-35.6-49.5-51.6-87.8L214.8,255.4z"/>
							<g>
								<g>
									<g>
										<path className="st1" d="M216.4,257.4c0,0-16.5,9.3-20.6,5.9c-7.3-5.9-13.4-27.4-13.4-27.4s30.8-11.6,30.5-11.2
											C212.6,225.3,216.4,257.4,216.4,257.4z"/>
										<path className="st1" d="M216.4,257.4c-0.3-1.7,6.1-19.5,8.3-26.2c0.5-1.6-0.6-3.4-2.3-3.7l0,0c-1.1-0.2-3-0.1-3.8,1.6
											l-7.7,13.2L216.4,257.4z"/>
										<path className="st1" d="M215.8,238.1l-5.3-26.4c-0.3-1.8-2.1-3-3.8-2.6l0,0c-1.5,0.3-2.5,1.6-2.3,3.2l2.3,19.6L215.8,238.1z"
											/>
										<path className="st1" d="M205.3,228.4l-7.2-18.8c-0.6-1.6-2.5-2.6-4.1-2l0,0c-1.4,0.5-2.2,1.9-1.9,3.4l5.3,21.8L205.3,228.4z"
											/>
										<path className="st1" d="M197.5,233.9l-9.1-18.5c-0.8-1.7-2.9-2.5-4.6-1.8l0,0c-1.6,0.7-2.3,2.5-1.6,4.2l7.3,17.5L197.5,233.9
											z"/>
										<path className="st1" d="M182.4,236l-7.1-11.3c-0.6-1.3,0-2.8,1.2-3.4l0,0c1.2-0.6,2.8-0.1,3.6,1l9.4,13L182.4,236z"/>
									</g>
								</g>
								<path className="st24" d="M214.4,236.1c0,0-10.7-1.1-11.8,13.2"/>
							</g>
						</g>
						<g>
							<g>
								<path className="st1" d="M237.9,332.3c0,0,8.8,30.5,26.4,26.5c17.6-4.1,45-41.6,45-41.6l-6.1-64.1l-49.3,60.7L237.9,332.3z"/>
								<path className="st13" d="M269.1,294.9c0,0,16.6,25.1,30.9,34l9.3-11.7l-35.9-27.7L269.1,294.9z"/>
							</g>
							<path className="st5" d="M341.9,220.8c0,0-48.9,11-74.9,67.8c0,0,15.7,23.7,41,34.3l16.9-20.7L341.9,220.8z"/>
						</g>
					</g>
					<g>
						<path className="st5" d="M341.9,220.6c-19.1,9.8-31.1,22.8-31.1,22.8l3.8,166.1h120.3l-0.4-165.2c0,0-15.2-14.8-31.6-22.1
							C388.9,216,355.5,213.7,341.9,220.6z"/>
						<path className="st23" d="M398.8,301.5L398.8,301.5c-9.2,0-16.7-7.5-16.7-16.7v-16.7h33.5v16.7
							C415.6,294.1,408.1,301.5,398.8,301.5z"/>
						<line className="st23" x1="434.7" y1="326.2" x2="436.3" y2="271.8"/>
						<line className="st23" x1="312.6" y1="317.1" x2="310" y2="270"/>
					</g>
				</g>
				<g>
					<path className="st17" d="M343.3,160l-5-24.8c-0.3-2-1.1-5.1-0.1-8.1c1.6-4.8,7.4-14.2,17.4-9.9l2.2,9.8c0,0-10.4,2.1-14.5,15.6
						L343.3,160z"/>
					<path className="st17" d="M354.9,122.3c-0.2,3.3-3.1,17.5-13.2,22.7C341.7,145,332.8,126,354.9,122.3z"/>
					<path className="st1" d="M390.3,216.1L390.3,216.1v-42.1h-38.8v42.1l-11.6,5.3c0,0,2.7,17.5,31.4,17.9c28.7,0.4,31.6-17,31.6-17
						L390.3,216.1z"/>
					<path className="st17" d="M355.6,117.2c0,0,7.1-18.8,29.1-8.8c13.3,6.1,17,14.2,18.6,19.9c0.5,1.9,0.7,4.9,0.6,6.7l-5.3,25
						l-20.8-34.6l-20.1,1.6L355.6,117.2z"/>
					<g>
						<path className="st13" d="M398.6,160c0,0,2.6-4.2,8-2.1c5.4,2,3,15.2-5.1,16.8c0,0-2.9,0.6-5.2-1.4
							C396.3,173.3,398.3,163.7,398.6,160z"/>
						<g>
							<g>
								<path className="st23" d="M405.5,162.5c0,0-4.5-1.5-7.7,5.2"/>
							</g>
						</g>
					</g>
					<g>
						<path className="st13" d="M343.3,160c0,0-2.6-4.2-8-2.1c-5.4,2-3,15.2,5.1,16.8c0,0,2.9,0.6,5.2-1.4
							C345.6,173.3,343.6,163.7,343.3,160z"/>
						<g>
							<g>
								<path className="st23" d="M336.4,162.5c0,0,4.5-1.5,7.7,5.2"/>
							</g>
						</g>
					</g>
					<path className="st1" d="M399.1,147.5c0,7.9-0.8,24.5-5.6,34.3c-4.6,9.2-12.1,14.2-22,14.5c-9.9,0.3-17.3-3.5-23.2-15.5
						c-5.9-12-5.6-33.1-5.6-33.1s0-28.2,27.9-28.2C400,119.4,399.1,147.5,399.1,147.5z"/>
					<path className="st17" d="M351.8,186.7c0,0,3.3,16.5,17.6,18.4c16.5,2.2,20.9-18,20.9-18s-7.3,9.2-18.9,9.2
						C358.6,196.3,351.8,186.7,351.8,186.7z"/>
					<g>
						<path className="st23" d="M368.9,159.3v6.5c0,0.3,0.1,0.5,0.2,0.8c0.4,1,1.5,1.4,2.5,1.2l2.2-0.6"/>
						<path className="st17" d="M360.7,156.1c0,1.4-1.1,2.5-2.5,2.5c-1.4,0-2.5-1.1-2.5-2.5c0-1.4,1.1-2.5,2.5-2.5
							C359.5,153.6,360.7,154.7,360.7,156.1z"/>
						<path className="st17" d="M384.5,156.1c0,1.4-1.1,2.5-2.5,2.5c-1.4,0-2.5-1.1-2.5-2.5c0-1.4,1.1-2.5,2.5-2.5
							C383.4,153.6,384.5,154.7,384.5,156.1z"/>
						<path className="st17" d="M375.5,143.5l17.1,4.4c0,0-0.8-4.8-7.8-6.5C377.8,139.6,375.5,143.5,375.5,143.5z"/>
						<path className="st17" d="M364.8,143.5l-17.1,4.4c0,0,0.8-4.8,7.8-6.5C362.5,139.6,364.8,143.5,364.8,143.5z"/>
						<path className="st23" d="M361.4,172.4c0,0,2.5,1.9,9.2,1.9c6,0,9.8-1.9,9.8-1.9"/>
						<g>
							<circle className="st25" cx="357.4" cy="156.9" r="10.8"/>
							<circle className="st25" cx="384" cy="156.9" r="10.8"/>
							<path className="st25" d="M368.2,156.9c0,0,2.6-2.4,4.9,0"/>
							<line className="st25" x1="346.6" y1="156.9" x2="343" y2="156.8"/>
							<line className="st25" x1="394.8" y1="156.9" x2="398.8" y2="156.8"/>
						</g>
					</g>
					<path className="st17" d="M351.8,123c0,0,5.2,14.7,28.6,14.3c15.9-0.3,19.7,11.2,19.7,11.2s-2.8-25.7-3.5-25.5
						c-0.7,0.2-24.2-6.3-24.2-6.3L351.8,123z"/>
				</g>
			</g>
		</g>
	</g>
	<text transform="matrix(1 0 0 1 321.7896 427.3057)" className="st7 st26 st27">WEBB SCHOOL</text>
</g>
<g id="DESIGNED_BY_FREEPIK">
</g>
</svg>
