
      <svg
        xmlns="http://www.w3.org/2000/svg"
        viewBox="0 0 680 500"
        width="680"
        height="500"
        preserveAspectRatio="xMidYMid meet"
        style="width: 100%; height: 100%; transform: translate3d(0px, 0px, 0px); content-visibility: visible;"
      >
        <defs>
          <clipPath id="__lottie_element_579">
            <rect width="680" height="500" x="0" y="0"></rect>
          </clipPath>
        </defs>
        <g clip-path="url(#__lottie_element_579)">
          <g
            transform="matrix(1,0,0,1,340,250)"
            opacity="1"
            style="display: block;"
          >
            <g opacity="1" transform="matrix(1,0,0,1,0,0)">
              <path
                fill="rgb(185,223,253)"
                fill-opacity="1"
                d=" M-243.19723510742188,-50.852237701416016 C-243.19723510742188,-50.852237701416016 -32.13505935668945,-163.63943481445312 -32.13505935668945,-163.63943481445312 C-11.271060943603516,-175.1504364013672 14.392939567565918,-173.42343139648438 33.52593994140625,-159.2194366455078 C33.52593994140625,-159.2194366455078 246.8502960205078,5.9487714767456055 246.8502960205078,5.9487714767456055 C288.1664733886719,38.018795013427734 274.060302734375,104.57376861572266 222.05029296875,114.55577087402344 C222.05029296875,114.55577087402344 -75.72286987304688,169.10699462890625 -75.72286987304688,169.10699462890625 C-93.57286834716797,172.5330047607422 -112.01986694335938,167.7989959716797 -126.0148696899414,156.2010040283203 C-126.0148696899414,156.2010040283203 -252.62924194335938,49.269691467285156 -252.62924194335938,49.269691467285156 C-285.65423583984375,21.90069007873535 -280.7522277832031,-30.13223648071289 -243.19723510742188,-50.852237701416016z"
              ></path>
            </g>
          </g>
          <g
            transform="matrix(1,0,0,1,0,0)"
            opacity="1"
            style="display: block;"
          >
            <g opacity="1" transform="matrix(1,0,0,1,0,0)">
              <g
                opacity="1"
                transform="matrix(1,0,0,1,291.864013671875,344.2820129394531)"
              >
                <path
                  fill="rgb(255,166,122)"
                  fill-opacity="1"
                  d=" M68.54499816894531,30.716999053955078 C68.54499816894531,30.716999053955078 60.262001037597656,-55.21500015258789 60.262001037597656,-55.21500015258789 C59.42900085449219,-63.85900115966797 51.74599838256836,-70.19100189208984 43.10200119018555,-69.35800170898438 C34.45800018310547,-68.5250015258789 28.125999450683594,-60.84199905395508 28.958999633789062,-52.198001861572266 C28.958999633789062,-52.198001861572266 35.97200012207031,20.562999725341797 35.97200012207031,20.562999725341797 C35.97200012207031,20.562999725341797 -61.60499954223633,47.24800109863281 -61.60499954223633,47.24800109863281 C-67.22100067138672,48.79999923706055 -70.83200073242188,54.44599914550781 -69.71399688720703,60.268001556396484 C-68.53800201416016,66.39199829101562 -62.62099838256836,70.40299987792969 -56.49700164794922,69.22699737548828 C-56.49700164794922,69.22699737548828 56.45199966430664,47.54100036621094 56.45199966430664,47.54100036621094 C56.45199966430664,47.54100036621094 69.91699981689453,44.95600128173828 69.91699981689453,44.95600128173828 C69.91699981689453,44.95600128173828 68.54499816894531,30.716999053955078 68.54499816894531,30.716999053955078z"
                ></path>
              </g>
              <g
                opacity="1"
                transform="matrix(1,0,0,1,338.6449890136719,311.1319885253906)"
              >
                <path
                  fill="rgb(239,148,108)"
                  fill-opacity="1"
                  d=" M13.480999946594238,-22.065000534057617 C13.430999755859375,-22.586000442504883 13.354000091552734,-23.097000122070312 13.255000114440918,-23.600000381469727 C13.255000114440918,-23.600000381469727 -17.867000579833984,-21.170000076293945 -17.867000579833984,-21.170000076293945 C-17.893999099731445,-20.469999313354492 -17.891000747680664,-19.764999389648438 -17.82200050354004,-19.04800033569336 C-17.82200050354004,-19.04800033569336 -13.925999641418457,21.368000030517578 -13.925999641418457,21.368000030517578 C-13.925999641418457,21.368000030517578 17.882999420166016,23.600000381469727 17.882999420166016,23.600000381469727 C17.882999420166016,23.600000381469727 13.480999946594238,-22.065000534057617 13.480999946594238,-22.065000534057617z"
                ></path>
              </g>
              <g
                opacity="1"
                transform="matrix(1,0,0,1,337.947998046875,295.6719970703125)"
              >
                <path
                  fill="rgb(66,120,198)"
                  fill-opacity="1"
                  d=" M27.347000122070312,27.982999801635742 C27.347000122070312,27.982999801635742 -23.514999389648438,32.65299987792969 -23.514999389648438,32.65299987792969 C-23.514999389648438,32.65299987792969 -27.253000259399414,-8.059000015258789 -27.253000259399414,-8.059000015258789 C-28.360000610351562,-20.118000030517578 -19.482999801635742,-30.79199981689453 -7.423999786376953,-31.89900016784668 C-7.423999786376953,-31.89900016784668 -0.23100000619888306,-32.558998107910156 -0.23100000619888306,-32.558998107910156 C11.82800006866455,-33.66600036621094 22.50200080871582,-24.788999557495117 23.608999252319336,-12.729999542236328 C23.608999252319336,-12.729999542236328 27.347000122070312,27.982999801635742 27.347000122070312,27.982999801635742z"
                ></path>
              </g>
              <g
                opacity="1"
                transform="matrix(1,0,0,1,204.62600708007812,400.4179992675781)"
              >
                <path
                  fill="rgb(255,166,122)"
                  fill-opacity="1"
                  d=" M28.006999969482422,13.303000450134277 C17.638999938964844,13.932999610900879 -0.35499998927116394,13.748000144958496 -7.531000137329102,5.855000019073486 C-7.531000137329102,5.855000019073486 -23.333999633789062,11.789999961853027 -27.726999282836914,12.057999610900879 C-32.12099838256836,12.326000213623047 -33.93199920654297,8.70199966430664 -33.93199920654297,8.70199966430664 C-33.93199920654297,8.70199966430664 -7.789999961853027,-10.968000411987305 -2.0959999561309814,-13.038999557495117 C3.5980000495910645,-15.109999656677246 29.48200035095215,-9.932999610900879 29.48200035095215,-9.932999610900879 C29.48200035095215,-9.932999610900879 33.702999114990234,5.368000030517578 33.702999114990234,5.368000030517578 C34.766998291015625,9.223999977111816 32,13.0600004196167 28.006999969482422,13.303000450134277z"
                ></path>
              </g>
            </g>
            <g opacity="1" transform="matrix(1,0,0,1,0,0)">
              <g
                opacity="1"
                transform="matrix(1,0,0,1,390.72198486328125,338.67401123046875)"
              >
                <g opacity="1" transform="matrix(1,0,0,1,0,0)">
                  <path
                    fill="rgb(82,149,254)"
                    fill-opacity="1"
                    d=" M2.7769999504089355,-91.33300018310547 C-26.849000930786133,-91.33300018310547 -49.698001861572266,-84.0719985961914 -64.10800170898438,-74.46600341796875 C-64.10800170898438,-74.46600341796875 -47.97100067138672,7.117000102996826 -47.97100067138672,7.117000102996826 C-47.97100067138672,7.117000102996826 -51.30699920654297,85.31900024414062 -51.30699920654297,85.31900024414062 C-51.30699920654297,85.31900024414062 6.214000225067139,98.8499984741211 64.10800170898438,85.31900024414062 C64.10800170898438,85.31900024414062 57.42300033569336,7.10099983215332 57.42300033569336,7.10099983215332 C57.42300033569336,7.10099983215332 63.20500183105469,-75.56300354003906 63.20500183105469,-75.56300354003906 C63.20500183105469,-75.56300354003906 39.84299850463867,-87.00399780273438 2.7769999504089355,-91.33300018310547z"
                  ></path>
                </g>
              </g>
              <g
                opacity="1"
                transform="matrix(1,0,0,1,388.24798583984375,267.0039978027344)"
              >
                <path
                  fill="rgb(255,182,146)"
                  fill-opacity="1"
                  d=" M33.46799850463867,-5.756999969482422 C33.46799850463867,7.105999946594238 18.483999252319336,17.533000946044922 0,17.533000946044922 C-18.483999252319336,17.533000946044922 -33.46799850463867,7.105999946594238 -33.46799850463867,-5.756999969482422 C-33.46799850463867,-18.618999481201172 -18.483999252319336,-17.509000778198242 0,-17.509000778198242 C18.483999252319336,-17.509000778198242 33.46799850463867,-18.618999481201172 33.46799850463867,-5.756999969482422z"
                ></path>
              </g>
            </g>
            <g opacity="1" transform="matrix(1,0,0,1,0,0)">
              <g
                opacity="1"
                transform="matrix(1,0,0,1,403.85198974609375,344.2820129394531)"
              >
                <path
                  fill="rgb(255,182,146)"
                  fill-opacity="1"
                  d=" M68.54499816894531,30.716999053955078 C68.54499816894531,30.716999053955078 60.262001037597656,-55.21500015258789 60.262001037597656,-55.21500015258789 C59.42900085449219,-63.85900115966797 51.74599838256836,-70.19100189208984 43.10200119018555,-69.35800170898438 C34.45800018310547,-68.5250015258789 28.125999450683594,-60.84199905395508 28.958999633789062,-52.198001861572266 C28.958999633789062,-52.198001861572266 35.972999572753906,20.562999725341797 35.972999572753906,20.562999725341797 C35.972999572753906,20.562999725341797 -61.604000091552734,47.24800109863281 -61.604000091552734,47.24800109863281 C-67.22000122070312,48.79999923706055 -70.83200073242188,54.44599914550781 -69.71399688720703,60.268001556396484 C-68.53800201416016,66.39199829101562 -62.62099838256836,70.40299987792969 -56.49700164794922,69.22699737548828 C-56.49700164794922,69.22699737548828 56.45199966430664,47.54100036621094 56.45199966430664,47.54100036621094 C56.45199966430664,47.54100036621094 69.91699981689453,44.95600128173828 69.91699981689453,44.95600128173828 C69.91699981689453,44.95600128173828 68.54499816894531,30.716999053955078 68.54499816894531,30.716999053955078z"
                ></path>
              </g>
              <g
                opacity="1"
                transform="matrix(1,0,0,1,451.16900634765625,317.57501220703125)"
              >
                <path
                  fill="rgb(216,141,135)"
                  fill-opacity="1"
                  d=" M14.053999900817871,-17.007999420166016 C14.053999900817871,-17.007999420166016 -17.332000732421875,-14.854999542236328 -17.332000732421875,-14.854999542236328 C-17.332000732421875,-14.854999542236328 -14.607000350952148,13.42199993133545 -14.607000350952148,13.42199993133545 C-14.607000350952148,13.42199993133545 17.332000732421875,17.007999420166016 17.332000732421875,17.007999420166016 C17.332000732421875,17.007999420166016 14.053999900817871,-17.007999420166016 14.053999900817871,-17.007999420166016z"
                ></path>
              </g>
              <g
                opacity="1"
                transform="matrix(1,0,0,1,449.9360046386719,295.6719970703125)"
              >
                <path
                  fill="rgb(66,120,198)"
                  fill-opacity="1"
                  d=" M27.347000122070312,27.982999801635742 C27.347000122070312,27.982999801635742 -23.514999389648438,32.65299987792969 -23.514999389648438,32.65299987792969 C-23.514999389648438,32.65299987792969 -27.253000259399414,-8.059000015258789 -27.253000259399414,-8.059000015258789 C-28.360000610351562,-20.118000030517578 -19.482999801635742,-30.79199981689453 -7.423999786376953,-31.89900016784668 C-7.423999786376953,-31.89900016784668 -0.23000000417232513,-32.558998107910156 -0.23000000417232513,-32.558998107910156 C11.829000473022461,-33.66600036621094 22.500999450683594,-24.788999557495117 23.607999801635742,-12.730999946594238 C23.607999801635742,-12.730999946594238 27.347000122070312,27.982999801635742 27.347000122070312,27.982999801635742z"
                ></path>
              </g>
              <g
                opacity="1"
                transform="matrix(1,0,0,1,316.6130065917969,400.4179992675781)"
              >
                <path
                  fill="rgb(255,182,146)"
                  fill-opacity="1"
                  d=" M28.006999969482422,13.303000450134277 C17.638999938964844,13.932999610900879 -0.35499998927116394,13.748000144958496 -7.531000137329102,5.855000019073486 C-7.531000137329102,5.855000019073486 -23.333999633789062,11.789999961853027 -27.726999282836914,12.057999610900879 C-32.12099838256836,12.326000213623047 -33.93199920654297,8.70199966430664 -33.93199920654297,8.70199966430664 C-33.93199920654297,8.70199966430664 -7.789999961853027,-10.968000411987305 -2.0959999561309814,-13.038999557495117 C3.5980000495910645,-15.109999656677246 29.48200035095215,-9.932999610900879 29.48200035095215,-9.932999610900879 C29.48200035095215,-9.932999610900879 33.702999114990234,5.368000030517578 33.702999114990234,5.368000030517578 C34.766998291015625,9.223999977111816 32,13.0600004196167 28.006999969482422,13.303000450134277z"
                ></path>
              </g>
            </g>
            <g opacity="1" transform="matrix(1,0,0,1,0,0)">
              <g opacity="1" transform="matrix(1,0,0,1,0,0)">
                <g opacity="1" transform="matrix(1,0,0,1,0,0)">
                  <g
                    opacity="1"
                    transform="matrix(1,0,0,1,342.6820068359375,189.9499969482422)"
                  >
                    <g opacity="1" transform="matrix(1,0,0,1,0,0)">
                      <path
                        fill="rgb(109,134,170)"
                        fill-opacity="1"
                        d=" M-14.6899995803833,0.8019999861717224 C-14.133999824523926,10.986000061035156 -7.10699987411499,18.884000778198242 1.00600004196167,18.44099998474121 C9.119000434875488,17.99799919128418 15.246000289916992,9.383000373840332 14.6899995803833,-0.8019999861717224 C14.133999824523926,-10.986000061035156 7.10699987411499,-18.884000778198242 -1.00600004196167,-18.44099998474121 C-9.119000434875488,-17.99799919128418 -15.246000289916992,-9.381999969482422 -14.6899995803833,0.8019999861717224z"
                      ></path>
                    </g>
                  </g>
                  <g
                    opacity="1"
                    transform="matrix(1,0,0,1,349.0379943847656,189.60299682617188)"
                  >
                    <path
                      fill="rgb(255,255,255)"
                      fill-opacity="1"
                      d=" M-14.6899995803833,0.8019999861717224 C-14.133999824523926,10.986000061035156 -7.10699987411499,18.884000778198242 1.00600004196167,18.44099998474121 C9.119000434875488,17.99799919128418 15.246000289916992,9.383000373840332 14.6899995803833,-0.8019999861717224 C14.133999824523926,-10.986000061035156 7.10699987411499,-18.884000778198242 -1.00600004196167,-18.44099998474121 C-9.119000434875488,-17.99799919128418 -15.246000289916992,-9.381999969482422 -14.6899995803833,0.8019999861717224z"
                    ></path>
                  </g>
                </g>
                <g
                  opacity="1"
                  transform="matrix(1,0,0,1,341.4859924316406,172.656005859375)"
                >
                  <path
                    fill="rgb(50,50,68)"
                    fill-opacity="1"
                    d=" M0.49399998784065247,-21.757999420166016 C-20.83300018310547,-0.9879999756813049 7.4629998207092285,22.378000259399414 7.4629998207092285,22.378000259399414 C7.4629998207092285,22.378000259399414 6.13100004196167,-22.378000259399414 6.13100004196167,-22.378000259399414 C6.13100004196167,-22.378000259399414 0.49399998784065247,-21.757999420166016 0.49399998784065247,-21.757999420166016z"
                  ></path>
                </g>
                <g
                  opacity="1"
                  transform="matrix(1,0,0,1,388.8590087890625,245.7740020751953)"
                >
                  <path
                    fill="rgb(255,182,146)"
                    fill-opacity="1"
                    d=" M22.86199951171875,6.666999816894531 C20.020999908447266,-45.38800048828125 11.333999633789062,-17.780000686645508 -1.2039999961853027,-17.09600067138672 C-13.741999626159668,-16.41200065612793 -25.198999404907227,-39.553001403808594 -22.54199981689453,9.145000457763672 C-21.547000885009766,27.38800048828125 -11.468000411987305,25.256999969482422 1.0700000524520874,24.572999954223633 C13.607999801635742,23.888999938964844 23.85700035095215,24.90999984741211 22.86199951171875,6.666999816894531z"
                  ></path>
                </g>
                <g
                  opacity="1"
                  transform="matrix(1,0,0,1,388.6969909667969,235.8459930419922)"
                >
                  <path
                    fill="rgb(216,141,135)"
                    fill-opacity="1"
                    d=" M-22.736000061035156,3.8399999141693115 C-22.118000030517578,-24.14299964904785 -11.993000030517578,-6.570000171661377 -1.0420000553131104,-7.168000221252441 C11.097999572753906,-7.830999851226807 19.628000259399414,-33.733001708984375 22.736000061035156,11.878999710083008 C3.684000015258789,19.27899932861328 -11.767000198364258,12.73900032043457 -22.736000061035156,3.8399999141693115z"
                  ></path>
                </g>
                <g
                  opacity="1"
                  transform="matrix(1,0,0,1,385.1239929199219,187.60000610351562)"
                >
                  <path
                    fill="rgb(255,182,146)"
                    fill-opacity="1"
                    d=" M6.129000186920166,-55.45199966430664 C6.129000186920166,-55.45199966430664 -14.072999954223633,-54.349998474121094 -14.072999954223633,-54.349998474121094 C-29.836999893188477,-53.4900016784668 -42.029998779296875,-39.88800048828125 -41.16999816894531,-24.124000549316406 C-41.16999816894531,-24.124000549316406 -38.893001556396484,17.600000381469727 -38.893001556396484,17.600000381469727 C-37.69200134277344,39.61199951171875 -18.698999404907227,56.63999938964844 3.313999891281128,55.43899917602539 C3.313999891281128,55.43899917602539 3.313999891281128,55.43899917602539 3.313999891281128,55.43899917602539 C25.326000213623047,54.237998962402344 42.354000091552734,35.24399948120117 41.15299987792969,13.232000350952148 C41.15299987792969,13.232000350952148 39.013999938964844,-25.97100067138672 39.013999938964844,-25.97100067138672 C38.077999114990234,-43.12099838256836 23.280000686645508,-56.38800048828125 6.129000186920166,-55.45199966430664z"
                  ></path>
                </g>
                <g
                  opacity="1"
                  transform="matrix(1,0,0,1,418.489990234375,188.26800537109375)"
                >
                  <path
                    fill="rgb(216,141,135)"
                    fill-opacity="1"
                    d=" M-7.809999942779541,0.8560000061988831 C-7.271999835968018,10.717000007629395 -0.7099999785423279,18.593000411987305 7.492000102996826,19.982999801635742 C7.813000202178955,17.562999725341797 7.925000190734863,15.085000038146973 7.7870001792907715,12.564000129699707 C7.7870001792907715,12.564000129699707 6.011000156402588,-19.982999801635742 6.011000156402588,-19.982999801635742 C-2.3510000705718994,-18.014999389648438 -8.36299991607666,-9.284000396728516 -7.809999942779541,0.8560000061988831z"
                  ></path>
                </g>
                <g
                  opacity="1"
                  transform="matrix(1,0,0,1,388.7489929199219,147.73399353027344)"
                >
                  <path
                    fill="rgb(216,141,135)"
                    fill-opacity="1"
                    d=" M35.24599838256836,12.180000305175781 C33.45399856567383,-4.13100004196167 19.07900047302246,-16.489999771118164 2.505000114440918,-15.586000442504883 C2.505000114440918,-15.586000442504883 -17.69700050354004,-14.484000205993652 -17.69700050354004,-14.484000205993652 C-24.45199966430664,-14.114999771118164 -30.54800033569336,-11.401000022888184 -35.24599838256836,-7.184999942779541 C-13.765999794006348,20.12700080871582 16.371999740600586,17.554000854492188 35.24599838256836,12.180000305175781z"
                  ></path>
                </g>
                <g
                  opacity="1"
                  transform="matrix(1,0,0,1,397.97198486328125,169.2220001220703)"
                >
                  <path
                    fill="rgb(50,50,68)"
                    fill-opacity="1"
                    d=" M2.1549999713897705,4.892000198364258 C2.1549999713897705,4.892000198364258 -4.605999946594238,2.7130000591278076 -4.605999946594238,2.7130000591278076 C-6.697000026702881,2.0390000343322754 -7.85699987411499,-0.22300000488758087 -7.183000087738037,-2.315000057220459 C-7.183000087738037,-2.315000057220459 -7.183000087738037,-2.315000057220459 -7.183000087738037,-2.315000057220459 C-6.508999824523926,-4.4070000648498535 -4.245999813079834,-5.565999984741211 -2.1549999713897705,-4.892000198364258 C-2.1549999713897705,-4.892000198364258 4.605999946594238,-2.7130000591278076 4.605999946594238,-2.7130000591278076 C6.697999954223633,-2.0390000343322754 7.85699987411499,0.22300000488758087 7.183000087738037,2.315000057220459 C7.183000087738037,2.315000057220459 7.183000087738037,2.315000057220459 7.183000087738037,2.315000057220459 C6.508999824523926,4.406000137329102 4.247000217437744,5.565999984741211 2.1549999713897705,4.892000198364258z"
                  ></path>
                </g>
                <g
                  opacity="1"
                  transform="matrix(1,0,0,1,363.29901123046875,172.0030059814453)"
                >
                  <path
                    fill="rgb(50,50,68)"
                    fill-opacity="1"
                    d=" M5.040999889373779,1.777999997138977 C5.040999889373779,1.777999997138977 -1.1749999523162842,5.215000152587891 -1.1749999523162842,5.215000152587891 C-3.0980000495910645,6.2779998779296875 -5.540999889373779,5.574999809265137 -6.604000091552734,3.6519999504089355 C-6.604000091552734,3.6519999504089355 -6.604000091552734,3.6519999504089355 -6.604000091552734,3.6519999504089355 C-7.666999816894531,1.7289999723434448 -6.964000225067139,-0.7149999737739563 -5.040999889373779,-1.777999997138977 C-5.040999889373779,-1.777999997138977 1.1749999523162842,-5.215000152587891 1.1749999523162842,-5.215000152587891 C3.0980000495910645,-6.2779998779296875 5.540999889373779,-5.574999809265137 6.604000091552734,-3.6519999504089355 C6.604000091552734,-3.6519999504089355 6.604000091552734,-3.6519999504089355 6.604000091552734,-3.6519999504089355 C7.666999816894531,-1.7289999723434448 6.964000225067139,0.7149999737739563 5.040999889373779,1.777999997138977z"
                  ></path>
                </g>
                <g
                  opacity="1"
                  transform="matrix(1,0,0,1,379.239013671875,205.68299865722656)"
                >
                  <path
                    fill="rgb(216,141,135)"
                    fill-opacity="1"
                    d=" M-5.353000164031982,-2.9660000801086426 C-5.353000164031982,-2.9660000801086426 5.195000171661377,-1.6239999532699585 5.348999977111816,0.3319999873638153 C5.502999782562256,2.2880001068115234 0.47099998593330383,3.497999906539917 -0.9729999899864197,2.734999895095825 C-2.4179999828338623,1.972000002861023 -5.353000164031982,-2.9660000801086426 -5.353000164031982,-2.9660000801086426z"
                  ></path>
                </g>
                <g
                  opacity="1"
                  transform="matrix(1,0,0,1,378.2950134277344,151.6840057373047)"
                >
                  <path
                    fill="rgb(50,50,68)"
                    fill-opacity="1"
                    d=" M32.41699981689453,5.314000129699707 C-67.97599792480469,30.020000457763672 -57.941001892089844,-20.503999710083008 -57.941001892089844,-20.503999710083008 C-57.941001892089844,-20.503999710083008 -52.50699996948242,-12.746999740600586 -52.50699996948242,-12.746999740600586 C-52.50699996948242,-12.746999740600586 -56.83100128173828,-36.37300109863281 -34.6879997253418,-44.95000076293945 C-34.6879997253418,-44.95000076293945 -31.756999969482422,-30.106000900268555 -31.756999969482422,-30.106000900268555 C-31.756999969482422,-30.106000900268555 3.006999969482422,-47.88199996948242 37.119998931884766,-26.72599983215332 C71.23300170898438,-5.570000171661377 53.73099899291992,44.95000076293945 53.73099899291992,44.95000076293945 C53.73099899291992,44.95000076293945 39.04600143432617,45.612998962402344 32.41699981689453,5.314000129699707z"
                  ></path>
                </g>
                <g
                  opacity="1"
                  transform="matrix(1,0,0,1,372.6300048828125,140.13800048828125)"
                >
                  <path
                    fill="rgb(73,73,107)"
                    fill-opacity="1"
                    d=" M52.55500030517578,-6.890999794006348 C49.92599868774414,-9.928000450134277 46.742000579833984,-12.706999778747559 42.891998291015625,-15.109999656677246 C18.947999954223633,2.0179998874664307 -17.283000946044922,18.945999145507812 -47.17399978637695,-5.202000141143799 C-47.124000549316406,-2.755000114440918 -46.84299850463867,-1.2020000219345093 -46.84299850463867,-1.2020000219345093 C-46.84299850463867,-1.2020000219345093 -52.277000427246094,-8.958000183105469 -52.277000427246094,-8.958000183105469 C-52.277000427246094,-8.958000183105469 -52.82500076293945,-6.197000026702881 -52.382999420166016,-2.2829999923706055 C-19.02199935913086,27.615999221801758 25.88599967956543,14.204000473022461 52.55500030517578,-6.890999794006348z"
                  ></path>
                </g>
                <g opacity="1" transform="matrix(1,0,0,1,0,0)">
                  <g
                    opacity="1"
                    transform="matrix(1,0,0,1,428.135986328125,185.0260009765625)"
                  >
                    <path
                      fill="rgb(255,182,146)"
                      fill-opacity="1"
                      d=" M-9.180000305175781,-1.2280000448226929 C-9.987000465393066,6.3480000495910645 -6.5320000648498535,13.038999557495117 -1.4620000123977661,13.717000007629395 C3.6080000400543213,14.395000457763672 8.371999740600586,8.803000450134277 9.180000305175781,1.2280000448226929 C9.98799991607666,-6.3480000495910645 6.5320000648498535,-13.038999557495117 1.4620000123977661,-13.717000007629395 C-3.6080000400543213,-14.395000457763672 -8.371999740600586,-8.803999900817871 -9.180000305175781,-1.2280000448226929z"
                    ></path>
                  </g>
                  <g
                    opacity="1"
                    transform="matrix(1,0,0,1,428.1610107421875,184.843994140625)"
                  >
                    <path
                      fill="rgb(216,141,135)"
                      fill-opacity="1"
                      d=" M-3.8580000400543213,-0.5799999833106995 C-4.631999969482422,-0.6840000152587891 -5.394000053405762,-0.5569999814033508 -6.117000102996826,-0.2529999911785126 C-6.10699987411499,-0.3790000081062317 -6.104000091552734,-0.5019999742507935 -6.090000152587891,-0.6290000081062317 C-5.556000232696533,-5.633999824523926 -2.4089999198913574,-9.32800006866455 0.9409999847412109,-8.880000114440918 C4.289999961853027,-8.432000160217285 6.572999954223633,-4.01200008392334 6.039000034332275,0.9929999709129333 C5.629000186920166,4.841000080108643 3.671999931335449,7.90500020980835 1.2680000066757202,8.916999816894531 C1.649999976158142,4.068999767303467 -0.5929999947547913,-0.14399999380111694 -3.8580000400543213,-0.5799999833106995z"
                    ></path>
                  </g>
                </g>
                <g opacity="1" transform="matrix(1,0,0,1,0,0)">
                  <g opacity="1" transform="matrix(1,0,0,1,0,0)">
                    <g
                      opacity="1"
                      transform="matrix(1,0,0,1,430.8030090332031,188.17999267578125)"
                    >
                      <path
                        fill="rgb(255,255,255)"
                        fill-opacity="1"
                        d=" M14.6899995803833,-0.8019999861717224 C15.246000289916992,9.381999969482422 9.119000434875488,17.99799919128418 1.00600004196167,18.44099998474121 C-7.10699987411499,18.884000778198242 -14.133999824523926,10.986000061035156 -14.6899995803833,0.8019999861717224 C-15.246000289916992,-9.383000373840332 -9.119000434875488,-17.99799919128418 -1.00600004196167,-18.44099998474121 C7.10699987411499,-18.884000778198242 14.133999824523926,-10.986000061035156 14.6899995803833,-0.8019999861717224z"
                      ></path>
                    </g>
                    <g
                      opacity="1"
                      transform="matrix(1,0,0,1,437.1579895019531,187.83299255371094)"
                    >
                      <path
                        fill="rgb(109,134,170)"
                        fill-opacity="1"
                        d=" M14.6899995803833,-0.8019999861717224 C15.246000289916992,9.381999969482422 9.119000434875488,17.99799919128418 1.00600004196167,18.44099998474121 C-7.10699987411499,18.884000778198242 -14.133999824523926,10.986000061035156 -14.6899995803833,0.8019999861717224 C-15.246000289916992,-9.381999969482422 -9.119000434875488,-17.99799919128418 -1.00600004196167,-18.44099998474121 C7.10699987411499,-18.884000778198242 14.133999824523926,-10.986000061035156 14.6899995803833,-0.8019999861717224z"
                      ></path>
                    </g>
                  </g>
                  <g
                    opacity="1"
                    transform="matrix(1,0,0,1,437.15899658203125,187.83299255371094)"
                  >
                    <path
                      fill="rgb(255,172,82)"
                      fill-opacity="1"
                      d=" M7.34499979019165,-0.4009999930858612 C7.623000144958496,4.690999984741211 4.559999942779541,8.99899959564209 0.503000020980835,9.220000267028809 C-3.553999900817871,9.440999984741211 -7.066999912261963,5.493000030517578 -7.34499979019165,0.4009999930858612 C-7.623000144958496,-4.690999984741211 -4.559999942779541,-8.99899959564209 -0.503000020980835,-9.220000267028809 C3.553999900817871,-9.440999984741211 7.066999912261963,-5.493000030517578 7.34499979019165,-0.4009999930858612z"
                    ></path>
                  </g>
                </g>
                <g
                  opacity="1"
                  transform="matrix(1,0,0,1,416.6050109863281,146.31100463867188)"
                >
                  <path
                    fill="rgb(109,134,170)"
                    fill-opacity="1"
                    d=" M14.289999961853027,27.506999969482422 C18.972000122070312,-5.210999965667725 -0.1679999977350235,-25.003000259399414 -23.76300048828125,-27.242000579833984 C-23.76300048828125,-27.242000579833984 -16.549999237060547,-28.135000228881836 -16.549999237060547,-28.135000228881836 C-16.549999237060547,-28.135000228881836 26.882999420166016,-28.29599952697754 23.584999084472656,28.135000228881836 C23.584999084472656,28.135000228881836 14.289999961853027,27.506999969482422 14.289999961853027,27.506999969482422z"
                  ></path>
                </g>
              </g>
              <g opacity="1" transform="matrix(1,0,0,1,0,0)">
                <g
                  opacity="1"
                  transform="matrix(1,0,0,1,349.82501220703125,217.1999969482422)"
                >
                  <path
                    stroke-linecap="butt"
                    stroke-linejoin="miter"
                    fill-opacity="0"
                    stroke-miterlimit="10"
                    stroke="rgb(109,134,170)"
                    stroke-opacity="1"
                    stroke-width="2"
                    d=" M-12.78600025177002,-11.857999801635742 C-13.60200023651123,13.956999778747559 12.805000305175781,11.814000129699707 12.805000305175781,11.814000129699707"
                  ></path>
                </g>
                <g
                  opacity="1"
                  transform="matrix(1,0,0,1,364.364990234375,229.03799438476562)"
                >
                  <path
                    fill="rgb(255,255,255)"
                    fill-opacity="1"
                    d=" M2.247999906539917,2.8989999294281006 C2.247999906539917,2.8989999294281006 -2.072000026702881,3.0280001163482666 -2.072000026702881,3.0280001163482666 C-3.7090001106262207,3.0769999027252197 -5.074999809265137,1.7890000343322754 -5.124000072479248,0.15199999511241913 C-5.124000072479248,0.15199999511241913 -5.124000072479248,0.15199999511241913 -5.124000072479248,0.15199999511241913 C-5.172999858856201,-1.4850000143051147 -3.884999990463257,-2.8499999046325684 -2.247999906539917,-2.8989999294281006 C-2.247999906539917,-2.8989999294281006 2.072000026702881,-3.0280001163482666 2.072000026702881,-3.0280001163482666 C3.7090001106262207,-3.0769999027252197 5.074999809265137,-1.7890000343322754 5.124000072479248,-0.15199999511241913 C5.124000072479248,-0.15199999511241913 5.124000072479248,-0.15199999511241913 5.124000072479248,-0.15199999511241913 C5.172999858856201,1.4850000143051147 3.884999990463257,2.8499999046325684 2.247999906539917,2.8989999294281006z"
                  ></path>
                </g>
              </g>
            </g>
          </g>
          <g
            transform="matrix(1,0,0,1,340,430.4679870605469)"
            opacity="1"
            style="display: block;"
          >
            <g opacity="1" transform="matrix(1,0,0,1,0,0)">
              <path
                fill="rgb(189,211,244)"
                fill-opacity="1"
                d=" M260.9309997558594,13.64799976348877 C260.9309997558594,13.64799976348877 -260.9309997558594,13.64799976348877 -260.9309997558594,13.64799976348877 C-268.468994140625,13.64799976348877 -274.5790100097656,7.538000106811523 -274.5790100097656,0 C-274.5790100097656,0 -274.5790100097656,0 -274.5790100097656,0 C-274.5790100097656,-7.538000106811523 -268.468994140625,-13.64799976348877 -260.9309997558594,-13.64799976348877 C-260.9309997558594,-13.64799976348877 260.9309997558594,-13.64799976348877 260.9309997558594,-13.64799976348877 C268.468994140625,-13.64799976348877 274.5790100097656,-7.538000106811523 274.5790100097656,0 C274.5790100097656,0 274.5790100097656,0 274.5790100097656,0 C274.5790100097656,7.538000106811523 268.468994140625,13.64799976348877 260.9309997558594,13.64799976348877z"
              ></path>
            </g>
          </g>
          <g
            transform="matrix(1,0,0,1,0,0)"
            opacity="1"
            style="display: block;"
          >
            <g
              opacity="1"
              transform="matrix(1,0,0,1,132.156005859375,402.0580139160156)"
            >
              <path
                fill="rgb(255,193,84)"
                fill-opacity="1"
                d=" M14.565999984741211,15.151000022888184 C14.565999984741211,15.151000022888184 -14.565999984741211,15.151000022888184 -14.565999984741211,15.151000022888184 C-14.565999984741211,15.151000022888184 -20.47100067138672,-15.151000022888184 -20.47100067138672,-15.151000022888184 C-20.47100067138672,-15.151000022888184 20.47100067138672,-15.151000022888184 20.47100067138672,-15.151000022888184 C20.47100067138672,-15.151000022888184 14.565999984741211,15.151000022888184 14.565999984741211,15.151000022888184z"
              ></path>
            </g>
            <g
              opacity="1"
              transform="matrix(1,0,0,1,132.156005859375,393.7619934082031)"
            >
              <path
                fill="rgb(255,158,85)"
                fill-opacity="1"
                d=" M-17.798999786376953,6.855000019073486 C-17.798999786376953,6.855000019073486 18.766000747680664,1.8949999809265137 18.766000747680664,1.8949999809265137 C18.766000747680664,1.8949999809265137 20.47100067138672,-6.855000019073486 20.47100067138672,-6.855000019073486 C20.47100067138672,-6.855000019073486 -20.47100067138672,-6.855000019073486 -20.47100067138672,-6.855000019073486 C-20.47100067138672,-6.855000019073486 -17.798999786376953,6.855000019073486 -17.798999786376953,6.855000019073486z"
              ></path>
            </g>
            <g opacity="1" transform="matrix(1,0,0,1,0,0)">
              <g
                opacity="1"
                transform="matrix(1,0,0,1,131.89100646972656,365.1239929199219)"
              >
                <path
                  fill="rgb(167,224,112)"
                  fill-opacity="1"
                  d=" M0.003000000026077032,19.500999450683594 C17.551000595092773,-4.830999851226807 0.2280000001192093,-19.31800079345703 0.003000000026077032,-19.503999710083008 C0.003000000026077032,-19.503999710083008 0.003000000026077032,-19.507999420166016 0.003000000026077032,-19.507999420166016 C0.003000000026077032,-19.507999420166016 0.0010000000474974513,-19.506000518798828 0,-19.506000518798828 C0,-19.506000518798828 -0.003000000026077032,-19.507999420166016 -0.003000000026077032,-19.507999420166016 C-0.003000000026077032,-19.507999420166016 -0.003000000026077032,-19.503999710083008 -0.003000000026077032,-19.503999710083008 C-0.22699999809265137,-19.31800079345703 -17.552000045776367,-4.831999778747559 -0.003000000026077032,19.500999450683594 C-0.003000000026077032,19.500999450683594 -0.003000000026077032,19.507999420166016 -0.003000000026077032,19.507999420166016 C-0.0020000000949949026,19.506999969482422 -0.0010000000474974513,19.506000518798828 0,19.5049991607666 C0.0010000000474974513,19.506000518798828 0.0020000000949949026,19.506999969482422 0.003000000026077032,19.507999420166016 C0.003000000026077032,19.507999420166016 0.003000000026077032,19.500999450683594 0.003000000026077032,19.500999450683594z"
                ></path>
              </g>
              <g opacity="1" transform="matrix(1,0,0,1,0,0)">
                <g opacity="1" transform="matrix(1,0,0,1,0,0)">
                  <g
                    opacity="1"
                    transform="matrix(1,0,0,1,149.6280059814453,372.48699951171875)"
                  >
                    <path
                      fill="rgb(117,183,90)"
                      fill-opacity="1"
                      d=" M-19.040000915527344,15.14900016784668 C-18.82200050354004,-18.14299964904785 1.850000023841858,-20.53700065612793 19.040000915527344,-8.569000244140625 C19.040000915527344,-8.569000244140625 -19.040000915527344,15.14900016784668 -19.040000915527344,15.14900016784668z"
                    ></path>
                  </g>
                  <g
                    opacity="1"
                    transform="matrix(1,0,0,1,151.69500732421875,378.7749938964844)"
                  >
                    <path
                      fill="rgb(167,224,112)"
                      fill-opacity="1"
                      d=" M-18.277999877929688,9.730999946594238 C-18.277999877929688,-11.593999862670898 5.875,-18.77400016784668 18.277999877929688,5.5970001220703125 C18.277999877929688,5.5970001220703125 -18.277999877929688,9.730999946594238 -18.277999877929688,9.730999946594238z"
                    ></path>
                  </g>
                </g>
                <g opacity="1" transform="matrix(1,0,0,1,0,0)">
                  <g
                    opacity="1"
                    transform="matrix(1,0,0,1,114.15899658203125,372.48699951171875)"
                  >
                    <path
                      fill="rgb(117,183,90)"
                      fill-opacity="1"
                      d=" M19.040000915527344,15.14900016784668 C18.82200050354004,-18.14299964904785 -1.850000023841858,-20.53700065612793 -19.040000915527344,-8.569000244140625 C-19.040000915527344,-8.569000244140625 19.040000915527344,15.14900016784668 19.040000915527344,15.14900016784668z"
                    ></path>
                  </g>
                  <g
                    opacity="1"
                    transform="matrix(1,0,0,1,112.09200286865234,378.7749938964844)"
                  >
                    <path
                      fill="rgb(167,224,112)"
                      fill-opacity="1"
                      d=" M18.277999877929688,9.730999946594238 C18.277999877929688,-11.593999862670898 -5.875,-18.77400016784668 -18.277999877929688,5.5970001220703125 C-18.277999877929688,5.5970001220703125 18.277999877929688,9.730999946594238 18.277999877929688,9.730999946594238z"
                    ></path>
                  </g>
                </g>
              </g>
            </g>
            <g
              opacity="1"
              transform="matrix(1,0,0,1,131.76199340820312,389.15899658203125)"
            >
              <path
                fill="rgb(255,193,84)"
                fill-opacity="1"
                d=" M23.29199981689453,3.4769999980926514 C23.29199981689453,3.4769999980926514 -23.29199981689453,3.4769999980926514 -23.29199981689453,3.4769999980926514 C-23.29199981689453,3.4769999980926514 -23.29199981689453,-3.4769999980926514 -23.29199981689453,-3.4769999980926514 C-23.29199981689453,-3.4769999980926514 23.29199981689453,-3.4769999980926514 23.29199981689453,-3.4769999980926514 C23.29199981689453,-3.4769999980926514 23.29199981689453,3.4769999980926514 23.29199981689453,3.4769999980926514z"
              ></path>
            </g>
          </g>
          <g
            transform="matrix(1,0,0,1,0,0)"
            opacity="1"
            style="display: block;"
          >
            <g opacity="1" transform="matrix(1,0,0,1,0,0)">
              <g
                opacity="1"
                transform="matrix(1,0,0,1,513.573974609375,389.9200134277344)"
              >
                <path
                  fill="rgb(255,255,255)"
                  fill-opacity="1"
                  d=" M11.609999656677246,26.895000457763672 C11.609999656677246,26.895000457763672 -11.609999656677246,26.895000457763672 -11.609999656677246,26.895000457763672 C-16.191999435424805,26.895000457763672 -19.9060001373291,23.18000030517578 -19.9060001373291,18.597999572753906 C-19.9060001373291,18.597999572753906 -19.9060001373291,-26.895000457763672 -19.9060001373291,-26.895000457763672 C-19.9060001373291,-26.895000457763672 19.9060001373291,-26.895000457763672 19.9060001373291,-26.895000457763672 C19.9060001373291,-26.895000457763672 19.9060001373291,18.597999572753906 19.9060001373291,18.597999572753906 C19.9060001373291,23.18000030517578 16.191999435424805,26.895000457763672 11.609999656677246,26.895000457763672z"
                ></path>
              </g>
              <g
                opacity="1"
                transform="matrix(1,0,0,1,538.56298828125,387.27301025390625)"
              >
                <g opacity="1" transform="matrix(1,0,0,1,0,0)">
                  <path
                    fill="rgb(255,255,255)"
                    fill-opacity="1"
                    d=" M0.953000009059906,18.847000122070312 C0.953000009059906,18.847000122070312 -11.96500015258789,18.847000122070312 -11.96500015258789,18.847000122070312 C-11.96500015258789,18.847000122070312 -11.96500015258789,-18.847000122070312 -11.96500015258789,-18.847000122070312 C-11.96500015258789,-18.847000122070312 0.953000009059906,-18.847000122070312 0.953000009059906,-18.847000122070312 C7.02400016784668,-18.847000122070312 11.96500015258789,-13.906999588012695 11.96500015258789,-7.835000038146973 C11.96500015258789,-7.835000038146973 11.96500015258789,7.835999965667725 11.96500015258789,7.835999965667725 C11.96500015258789,13.906999588012695 7.02400016784668,18.847000122070312 0.953000009059906,18.847000122070312z M-6.247000217437744,13.130000114440918 C-6.247000217437744,13.130000114440918 0.953000009059906,13.130000114440918 0.953000009059906,13.130000114440918 C3.871999979019165,13.130000114440918 6.247000217437744,10.755000114440918 6.247000217437744,7.835999965667725 C6.247000217437744,7.835999965667725 6.247000217437744,-7.835000038146973 6.247000217437744,-7.835000038146973 C6.247000217437744,-10.753999710083008 3.871999979019165,-13.130000114440918 0.953000009059906,-13.130000114440918 C0.953000009059906,-13.130000114440918 -6.247000217437744,-13.130000114440918 -6.247000217437744,-13.130000114440918 C-6.247000217437744,-13.130000114440918 -6.247000217437744,13.130000114440918 -6.247000217437744,13.130000114440918z"
                  ></path>
                </g>
              </g>
            </g>
            <g
              opacity="1"
              transform="matrix(1,0,0,1,513.573974609375,401.3630065917969)"
            >
              <path
                fill="rgb(239,246,255)"
                fill-opacity="1"
                d=" M-10.447999954223633,15.451000213623047 C-10.447999954223633,15.451000213623047 10.447999954223633,15.451000213623047 10.447999954223633,15.451000213623047 C15.67199993133545,15.451000213623047 19.9060001373291,11.217000007629395 19.9060001373291,5.993000030517578 C19.9060001373291,5.993000030517578 19.9060001373291,-0.20000000298023224 19.9060001373291,-0.20000000298023224 C9.065999984741211,7.7230000495910645 -6.809000015258789,-9.6850004196167 -19.9060001373291,-15.451000213623047 C-19.9060001373291,-15.451000213623047 -19.9060001373291,5.993000030517578 -19.9060001373291,5.993000030517578 C-19.9060001373291,11.217000007629395 -15.67199993133545,15.451000213623047 -10.447999954223633,15.451000213623047z"
              ></path>
            </g>
          </g>
          <g
            transform="matrix(1,0,0,1,0,0.0009765625)"
            opacity="1"
            style="display: block;"
          >
            <g
              opacity="1"
              transform="matrix(1,0,0,1,222.37100219726562,359.37298583984375)"
            >
              <path
                fill="rgb(255,255,255)"
                fill-opacity="1"
                d=" M-56.612998962402344,50.25699996948242 C-56.612998962402344,50.25699996948242 86.30999755859375,50.237998962402344 86.30999755859375,50.237998962402344 C86.30999755859375,50.237998962402344 56.46500015258789,-50.25699996948242 56.46500015258789,-50.25699996948242 C56.46500015258789,-50.25699996948242 -86.30999755859375,-50.25699996948242 -86.30999755859375,-50.25699996948242 C-86.30999755859375,-50.25699996948242 -56.612998962402344,50.25699996948242 -56.612998962402344,50.25699996948242z"
              ></path>
            </g>
            <g
              opacity="1"
              transform="matrix(1,0,0,1,270.2760009765625,413.16400146484375)"
            >
              <path
                fill="rgb(160,184,232)"
                fill-opacity="1"
                d=" M-104.50499725341797,3.569000005722046 C-104.50499725341797,3.569000005722046 104.50499725341797,3.569000005722046 104.50499725341797,3.569000005722046 C104.50499725341797,3.569000005722046 104.50499725341797,-3.569000005722046 104.50499725341797,-3.569000005722046 C104.50499725341797,-3.569000005722046 -104.50499725341797,-3.569000005722046 -104.50499725341797,-3.569000005722046 C-104.50499725341797,-3.569000005722046 -104.50499725341797,3.569000005722046 -104.50499725341797,3.569000005722046z"
              ></path>
            </g>
            <g
              opacity="1"
              transform="matrix(1,0,0,1,237.22300720214844,413.16400146484375)"
            >
              <path
                fill="rgb(239,246,255)"
                fill-opacity="1"
                d=" M-71.4530029296875,3.569000005722046 C-71.4530029296875,3.569000005722046 71.4530029296875,3.569000005722046 71.4530029296875,3.569000005722046 C71.4530029296875,3.569000005722046 71.4530029296875,-3.569000005722046 71.4530029296875,-3.569000005722046 C71.4530029296875,-3.569000005722046 -71.4530029296875,-3.569000005722046 -71.4530029296875,-3.569000005722046 C-71.4530029296875,-3.569000005722046 -71.4530029296875,3.569000005722046 -71.4530029296875,3.569000005722046z"
              ></path>
            </g>
            <g
              opacity="1"
              transform="matrix(1,0,0,1,296.6830139160156,359.5159912109375)"
            >
              <path
                fill="rgb(139,166,209)"
                fill-opacity="1"
                d=" M-17.847000122070312,-50.400001525878906 C-17.847000122070312,-50.400001525878906 -12.420999526977539,-50.400001525878906 -12.420999526977539,-50.400001525878906 C-12.420999526977539,-50.400001525878906 17.847000122070312,50.400001525878906 17.847000122070312,50.400001525878906 C17.847000122070312,50.400001525878906 11.993000030517578,50.077999114990234 11.993000030517578,50.077999114990234 C11.993000030517578,50.077999114990234 -17.847000122070312,-50.400001525878906 -17.847000122070312,-50.400001525878906z"
              ></path>
            </g>
            <g
              opacity="1"
              transform="matrix(1,0,0,1,218.81900024414062,364.625)"
            >
              <path
                fill="rgb(160,184,232)"
                fill-opacity="1"
                d=" M-11.133000373840332,3.625 C-8.795000076293945,10.807000160217285 -1.9149999618530273,15.005000114440918 4.234000205993652,13.003000259399414 C10.383000373840332,11.00100040435791 13.470999717712402,3.556999921798706 11.133000373840332,-3.625 C8.793999671936035,-10.805999755859375 1.9149999618530273,-15.005000114440918 -4.234000205993652,-13.003000259399414 C-10.383000373840332,-11.00100040435791 -13.470999717712402,-3.555999994277954 -11.133000373840332,3.625z"
              ></path>
            </g>
          </g>
          <g
            transform="matrix(1.0000200271606445,0,0,1.0000200271606445,-0.00616455078125,-0.0044708251953125)"
            opacity="1"
            style="display: block;"
          >
            <g
              opacity="1"
              transform="matrix(1,0,0,1,207.7169952392578,192.56100463867188)"
            >
              <path
                fill="rgb(255,255,255)"
                fill-opacity="1"
                d=" M95.4280014038086,30.45800018310547 C95.4280014038086,30.45800018310547 75.4749984741211,16.290000915527344 75.4749984741211,16.290000915527344 C75.4749984741211,16.290000915527344 75.4749984741211,-67.82499694824219 75.4749984741211,-67.82499694824219 C75.4749984741211,-71.9530029296875 72.12899780273438,-75.29900360107422 68.00199890136719,-75.29900360107422 C68.00199890136719,-75.29900360107422 -87.9540023803711,-75.29900360107422 -87.9540023803711,-75.29900360107422 C-92.08200073242188,-75.29900360107422 -95.4280014038086,-71.9530029296875 -95.4280014038086,-67.82499694824219 C-95.4280014038086,-67.82499694824219 -95.4280014038086,67.82499694824219 -95.4280014038086,67.82499694824219 C-95.4280014038086,71.9530029296875 -92.08200073242188,75.29900360107422 -87.9540023803711,75.29900360107422 C-87.9540023803711,75.29900360107422 68.00199890136719,75.29900360107422 68.00199890136719,75.29900360107422 C72.12899780273438,75.29900360107422 75.4749984741211,71.9530029296875 75.4749984741211,67.82499694824219 C75.4749984741211,67.82499694824219 75.4749984741211,44.625999450683594 75.4749984741211,44.625999450683594 C75.4749984741211,44.625999450683594 95.4280014038086,30.45800018310547 95.4280014038086,30.45800018310547z"
              ></path>
            </g>
            <g opacity="1" transform="matrix(1,0,0,1,0,0)">
              <g
                opacity="1"
                transform="matrix(1,0,0,1,138.23500061035156,145.6750030517578)"
              >
                <path
                  fill="rgb(167,224,112)"
                  fill-opacity="1"
                  d=" M10.152999877929688,0 C10.152999877929688,5.60699987411499 5.60699987411499,10.152999877929688 0,10.152999877929688 C-5.60699987411499,10.152999877929688 -10.152999877929688,5.60699987411499 -10.152999877929688,0 C-10.152999877929688,-5.60699987411499 -5.60699987411499,-10.152999877929688 0,-10.152999877929688 C5.60699987411499,-10.152999877929688 10.152999877929688,-5.60699987411499 10.152999877929688,0z"
                ></path>
              </g>
              <g opacity="1" transform="matrix(1,0,0,1,0,0)">
                <g
                  opacity="1"
                  transform="matrix(1,0,0,1,210.572998046875,149.69400024414062)"
                >
                  <path
                    fill="rgb(214,230,253)"
                    fill-opacity="1"
                    d=" M54.14699935913086,-2.678999900817871 C54.14699935913086,-2.678999900817871 -54.14799880981445,-2.678999900817871 -54.14799880981445,-2.678999900817871 C-55.62799835205078,-2.678999900817871 -56.82699966430664,-1.4800000190734863 -56.82699966430664,0 C-56.82699966430664,1.4800000190734863 -55.62799835205078,2.678999900817871 -54.14799880981445,2.678999900817871 C-54.14799880981445,2.678999900817871 54.14699935913086,2.678999900817871 54.14699935913086,2.678999900817871 C55.62699890136719,2.678999900817871 56.82699966430664,1.4800000190734863 56.82699966430664,0 C56.82699966430664,-1.4800000190734863 55.62699890136719,-2.678999900817871 54.14699935913086,-2.678999900817871z"
                  ></path>
                </g>
                <g
                  opacity="1"
                  transform="matrix(1,0,0,1,181.0659942626953,141.656005859375)"
                >
                  <path
                    fill="rgb(189,211,244)"
                    fill-opacity="1"
                    d=" M-24.641000747680664,2.678999900817871 C-24.641000747680664,2.678999900817871 24.641000747680664,2.678999900817871 24.641000747680664,2.678999900817871 C26.121000289916992,2.678999900817871 27.320999145507812,1.4800000190734863 27.320999145507812,0 C27.320999145507812,-1.4800000190734863 26.121000289916992,-2.678999900817871 24.641000747680664,-2.678999900817871 C24.641000747680664,-2.678999900817871 -24.641000747680664,-2.678999900817871 -24.641000747680664,-2.678999900817871 C-26.121000289916992,-2.678999900817871 -27.320999145507812,-1.4800000190734863 -27.320999145507812,0 C-27.320999145507812,1.4800000190734863 -26.121000289916992,2.678999900817871 -24.641000747680664,2.678999900817871z"
                  ></path>
                </g>
              </g>
            </g>
            <g opacity="1" transform="matrix(1,0,0,1,0,0)">
              <g
                opacity="1"
                transform="matrix(1,0,0,1,257.24700927734375,176.4149932861328)"
              >
                <path
                  fill="rgb(255,193,84)"
                  fill-opacity="1"
                  d=" M-10.152999877929688,0 C-10.152999877929688,5.60699987411499 -5.60699987411499,10.152999877929688 0,10.152999877929688 C5.60699987411499,10.152999877929688 10.152999877929688,5.60699987411499 10.152999877929688,0 C10.152999877929688,-5.60699987411499 5.60699987411499,-10.152999877929688 0,-10.152999877929688 C-5.60699987411499,-10.152999877929688 -10.152999877929688,-5.60699987411499 -10.152999877929688,0z"
                ></path>
              </g>
              <g opacity="1" transform="matrix(1,0,0,1,0,0)">
                <g
                  opacity="1"
                  transform="matrix(1,0,0,1,184.90899658203125,180.4340057373047)"
                >
                  <path
                    fill="rgb(214,230,253)"
                    fill-opacity="1"
                    d=" M54.14699935913086,-2.678999900817871 C54.14699935913086,-2.678999900817871 -54.14799880981445,-2.678999900817871 -54.14799880981445,-2.678999900817871 C-55.62799835205078,-2.678999900817871 -56.82699966430664,-1.4800000190734863 -56.82699966430664,0 C-56.82699966430664,1.4800000190734863 -55.62799835205078,2.678999900817871 -54.14799880981445,2.678999900817871 C-54.14799880981445,2.678999900817871 54.14699935913086,2.678999900817871 54.14699935913086,2.678999900817871 C55.62699890136719,2.678999900817871 56.82699966430664,1.4800000190734863 56.82699966430664,0 C56.82699966430664,-1.4800000190734863 55.62699890136719,-2.678999900817871 54.14699935913086,-2.678999900817871z"
                  ></path>
                </g>
                <g
                  opacity="1"
                  transform="matrix(1,0,0,1,155.4029998779297,172.39599609375)"
                >
                  <path
                    fill="rgb(189,211,244)"
                    fill-opacity="1"
                    d=" M-24.641000747680664,2.678999900817871 C-24.641000747680664,2.678999900817871 24.641000747680664,2.678999900817871 24.641000747680664,2.678999900817871 C26.121000289916992,2.678999900817871 27.31999969482422,1.4800000190734863 27.31999969482422,0 C27.31999969482422,-1.4800000190734863 26.121000289916992,-2.678999900817871 24.641000747680664,-2.678999900817871 C24.641000747680664,-2.678999900817871 -24.641000747680664,-2.678999900817871 -24.641000747680664,-2.678999900817871 C-26.121000289916992,-2.678999900817871 -27.31999969482422,-1.4800000190734863 -27.31999969482422,0 C-27.31999969482422,1.4800000190734863 -26.121000289916992,2.678999900817871 -24.641000747680664,2.678999900817871z"
                  ></path>
                </g>
              </g>
            </g>
            <g opacity="1" transform="matrix(1,0,0,1,0,0)">
              <g
                opacity="1"
                transform="matrix(1,0,0,1,138.23500061035156,207.718994140625)"
              >
                <path
                  fill="rgb(167,224,112)"
                  fill-opacity="1"
                  d=" M10.152999877929688,0 C10.152999877929688,5.60699987411499 5.60699987411499,10.152999877929688 0,10.152999877929688 C-5.60699987411499,10.152999877929688 -10.152999877929688,5.60699987411499 -10.152999877929688,0 C-10.152999877929688,-5.60699987411499 -5.60699987411499,-10.152999877929688 0,-10.152999877929688 C5.60699987411499,-10.152999877929688 10.152999877929688,-5.60699987411499 10.152999877929688,0z"
                ></path>
              </g>
              <g opacity="1" transform="matrix(1,0,0,1,0,0)">
                <g
                  opacity="1"
                  transform="matrix(1,0,0,1,210.572998046875,211.73800659179688)"
                >
                  <path
                    fill="rgb(214,230,253)"
                    fill-opacity="1"
                    d=" M54.14699935913086,-2.678999900817871 C54.14699935913086,-2.678999900817871 -54.14799880981445,-2.678999900817871 -54.14799880981445,-2.678999900817871 C-55.62799835205078,-2.678999900817871 -56.82699966430664,-1.4800000190734863 -56.82699966430664,0 C-56.82699966430664,1.4800000190734863 -55.62799835205078,2.678999900817871 -54.14799880981445,2.678999900817871 C-54.14799880981445,2.678999900817871 54.14699935913086,2.678999900817871 54.14699935913086,2.678999900817871 C55.62699890136719,2.678999900817871 56.82699966430664,1.4800000190734863 56.82699966430664,0 C56.82699966430664,-1.4800000190734863 55.62699890136719,-2.678999900817871 54.14699935913086,-2.678999900817871z"
                  ></path>
                </g>
                <g
                  opacity="1"
                  transform="matrix(1,0,0,1,181.0659942626953,203.6999969482422)"
                >
                  <path
                    fill="rgb(189,211,244)"
                    fill-opacity="1"
                    d=" M-24.641000747680664,2.678999900817871 C-24.641000747680664,2.678999900817871 24.641000747680664,2.678999900817871 24.641000747680664,2.678999900817871 C26.121000289916992,2.678999900817871 27.320999145507812,1.4800000190734863 27.320999145507812,0 C27.320999145507812,-1.4800000190734863 26.121000289916992,-2.678999900817871 24.641000747680664,-2.678999900817871 C24.641000747680664,-2.678999900817871 -24.641000747680664,-2.678999900817871 -24.641000747680664,-2.678999900817871 C-26.121000289916992,-2.678999900817871 -27.320999145507812,-1.4800000190734863 -27.320999145507812,0 C-27.320999145507812,1.4800000190734863 -26.121000289916992,2.678999900817871 -24.641000747680664,2.678999900817871z"
                  ></path>
                </g>
              </g>
            </g>
            <g opacity="1" transform="matrix(1,0,0,1,0,0)">
              <g
                opacity="1"
                transform="matrix(1,0,0,1,257.24700927734375,238.45899963378906)"
              >
                <path
                  fill="rgb(255,193,84)"
                  fill-opacity="1"
                  d=" M-10.152999877929688,0 C-10.152999877929688,5.60699987411499 -5.60699987411499,10.152999877929688 0,10.152999877929688 C5.60699987411499,10.152999877929688 10.152999877929688,5.60699987411499 10.152999877929688,0 C10.152999877929688,-5.60699987411499 5.60699987411499,-10.152999877929688 0,-10.152999877929688 C-5.60699987411499,-10.152999877929688 -10.152999877929688,-5.60699987411499 -10.152999877929688,0z"
                ></path>
              </g>
              <g opacity="1" transform="matrix(1,0,0,1,0,0)">
                <g
                  opacity="1"
                  transform="matrix(1,0,0,1,184.90899658203125,242.47799682617188)"
                >
                  <path
                    fill="rgb(214,230,253)"
                    fill-opacity="1"
                    d=" M54.14699935913086,-2.678999900817871 C54.14699935913086,-2.678999900817871 -54.14799880981445,-2.678999900817871 -54.14799880981445,-2.678999900817871 C-55.62799835205078,-2.678999900817871 -56.82699966430664,-1.4800000190734863 -56.82699966430664,0 C-56.82699966430664,1.4800000190734863 -55.62799835205078,2.678999900817871 -54.14799880981445,2.678999900817871 C-54.14799880981445,2.678999900817871 54.14699935913086,2.678999900817871 54.14699935913086,2.678999900817871 C55.62699890136719,2.678999900817871 56.82699966430664,1.4800000190734863 56.82699966430664,0 C56.82699966430664,-1.4800000190734863 55.62699890136719,-2.678999900817871 54.14699935913086,-2.678999900817871z"
                  ></path>
                </g>
                <g
                  opacity="1"
                  transform="matrix(1,0,0,1,155.4029998779297,234.4409942626953)"
                >
                  <path
                    fill="rgb(189,211,244)"
                    fill-opacity="1"
                    d=" M-24.641000747680664,2.678999900817871 C-24.641000747680664,2.678999900817871 24.641000747680664,2.678999900817871 24.641000747680664,2.678999900817871 C26.121000289916992,2.678999900817871 27.31999969482422,1.4800000190734863 27.31999969482422,0 C27.31999969482422,-1.4800000190734863 26.121000289916992,-2.678999900817871 24.641000747680664,-2.678999900817871 C24.641000747680664,-2.678999900817871 -24.641000747680664,-2.678999900817871 -24.641000747680664,-2.678999900817871 C-26.121000289916992,-2.678999900817871 -27.31999969482422,-1.4800000190734863 -27.31999969482422,0 C-27.31999969482422,1.4800000190734863 -26.121000289916992,2.678999900817871 -24.641000747680664,2.678999900817871z"
                  ></path>
                </g>
              </g>
            </g>
          </g>
          <g
            transform="matrix(0.9999744892120361,0,0,0.9999744892120361,0.011322021484375,0.0037384033203125)"
            opacity="1"
            style="display: block;"
          >
            <g
              opacity="1"
              transform="matrix(1,0,0,1,497.59600830078125,101.11799621582031)"
            >
              <g opacity="1" transform="matrix(1,0,0,1,0,0)">
                <path
                  fill="rgb(255,193,84)"
                  fill-opacity="1"
                  d=" M36.104000091552734,-45.23400115966797 C36.104000091552734,-45.23400115966797 -36.104000091552734,-45.23400115966797 -36.104000091552734,-45.23400115966797 C-45.72999954223633,-45.23400115966797 -53.534000396728516,-37.43000030517578 -53.534000396728516,-27.804000854492188 C-53.534000396728516,-27.804000854492188 -53.534000396728516,8.300000190734863 -53.534000396728516,8.300000190734863 C-53.534000396728516,17.506000518798828 -46.39099884033203,25.024999618530273 -37.3489990234375,25.666000366210938 C-37.3489990234375,25.666000366210938 -37.3489990234375,45.23400115966797 -37.3489990234375,45.23400115966797 C-37.3489990234375,45.23400115966797 -17.844999313354492,25.729000091552734 -17.844999313354492,25.729000091552734 C-17.844999313354492,25.729000091552734 36.104000091552734,25.729000091552734 36.104000091552734,25.729000091552734 C45.72999954223633,25.729000091552734 53.534000396728516,17.926000595092773 53.534000396728516,8.300000190734863 C53.534000396728516,8.300000190734863 53.534000396728516,-27.804000854492188 53.534000396728516,-27.804000854492188 C53.534000396728516,-37.43000030517578 45.72999954223633,-45.23400115966797 36.104000091552734,-45.23400115966797z"
                ></path>
              </g>
            </g>
            <g opacity="1" transform="matrix(1,0,0,1,0,0)">
              <g
                opacity="1"
                transform="matrix(1,0,0,1,472.74200439453125,92.88500213623047)"
              >
                <path
                  fill="rgb(255,255,255)"
                  fill-opacity="1"
                  d=" M0,-7.474999904632568 C-4.127999782562256,-7.474999904632568 -7.474999904632568,-4.127999782562256 -7.474999904632568,0 C-7.474999904632568,4.127999782562256 -4.127999782562256,7.474999904632568 0,7.474999904632568 C4.127999782562256,7.474999904632568 7.474999904632568,4.127999782562256 7.474999904632568,0 C7.474999904632568,-4.127999782562256 4.127999782562256,-7.474999904632568 0,-7.474999904632568z"
                ></path>
              </g>
              <g
                opacity="1"
                transform="matrix(1,0,0,1,497.59600830078125,92.88500213623047)"
              >
                <path
                  fill="rgb(255,255,255)"
                  fill-opacity="1"
                  d=" M0,-7.474999904632568 C-4.127999782562256,-7.474999904632568 -7.474999904632568,-4.127999782562256 -7.474999904632568,0 C-7.474999904632568,4.127999782562256 -4.127999782562256,7.474999904632568 0,7.474999904632568 C4.127999782562256,7.474999904632568 7.474999904632568,4.127999782562256 7.474999904632568,0 C7.474999904632568,-4.127999782562256 4.127999782562256,-7.474999904632568 0,-7.474999904632568z"
                ></path>
              </g>
              <g
                opacity="1"
                transform="matrix(1,0,0,1,522.4500122070312,92.88500213623047)"
              >
                <path
                  fill="rgb(255,255,255)"
                  fill-opacity="1"
                  d=" M0,-7.474999904632568 C-4.127999782562256,-7.474999904632568 -7.474999904632568,-4.127999782562256 -7.474999904632568,0 C-7.474999904632568,4.127999782562256 -4.127999782562256,7.474999904632568 0,7.474999904632568 C4.127999782562256,7.474999904632568 7.474999904632568,4.127999782562256 7.474999904632568,0 C7.474999904632568,-4.127999782562256 4.127999782562256,-7.474999904632568 0,-7.474999904632568z"
                ></path>
              </g>
            </g>
          </g>
          <g
            transform="matrix(0.999652087688446,0,0,0.999652087688446,0.161102294921875,0.0789794921875)"
            opacity="1"
            style="display: block;"
          >
            <g
              opacity="1"
              transform="matrix(1,0,0,1,533.760009765625,226.9929962158203)"
            >
              <path
                fill="rgb(82,149,254)"
                fill-opacity="1"
                d=" M65.37100219726562,-20.15399932861328 C65.37100219726562,-20.15399932861328 -51.236000061035156,-20.15399932861328 -51.236000061035156,-20.15399932861328 C-54.19900131225586,-20.15399932861328 -56.60200119018555,-17.75200080871582 -56.60200119018555,-14.788000106811523 C-56.60200119018555,-14.788000106811523 -56.60200119018555,-7.0929999351501465 -56.60200119018555,-7.0929999351501465 C-56.60200119018555,-7.0929999351501465 -70.73600006103516,0 -70.73600006103516,0 C-70.73600006103516,0 -56.60200119018555,7.0929999351501465 -56.60200119018555,7.0929999351501465 C-56.60200119018555,7.0929999351501465 -56.60200119018555,14.788000106811523 -56.60200119018555,14.788000106811523 C-56.60200119018555,17.750999450683594 -54.19900131225586,20.15399932861328 -51.236000061035156,20.15399932861328 C-51.236000061035156,20.15399932861328 65.37100219726562,20.15399932861328 65.37100219726562,20.15399932861328 C68.33399963378906,20.15399932861328 70.73600006103516,17.750999450683594 70.73600006103516,14.788000106811523 C70.73600006103516,14.788000106811523 70.73600006103516,-14.788000106811523 70.73600006103516,-14.788000106811523 C70.73600006103516,-17.75200080871582 68.33399963378906,-20.15399932861328 65.37100219726562,-20.15399932861328z"
              ></path>
            </g>
            <g opacity="1" transform="matrix(1,0,0,1,0,0)">
              <g
                opacity="1"
                transform="matrix(1,0,0,1,493.9159851074219,227.12399291992188)"
              >
                <path
                  fill="rgb(255,193,84)"
                  fill-opacity="1"
                  d=" M0,6.321000099182129 C0,6.321000099182129 -5.3420000076293945,8.220999717712402 -5.3420000076293945,8.220999717712402 C-5.3420000076293945,8.220999717712402 -5.185999870300293,2.552999973297119 -5.185999870300293,2.552999973297119 C-5.185999870300293,2.552999973297119 -8.644000053405762,-1.940999984741211 -8.644000053405762,-1.940999984741211 C-8.644000053405762,-1.940999984741211 -3.2049999237060547,-3.5439999103546143 -3.2049999237060547,-3.5439999103546143 C-3.2049999237060547,-3.5439999103546143 0,-8.220999717712402 0,-8.220999717712402 C0,-8.220999717712402 3.2049999237060547,-3.5439999103546143 3.2049999237060547,-3.5439999103546143 C3.2049999237060547,-3.5439999103546143 8.644000053405762,-1.940999984741211 8.644000053405762,-1.940999984741211 C8.644000053405762,-1.940999984741211 5.186999797821045,2.552999973297119 5.186999797821045,2.552999973297119 C5.186999797821045,2.552999973297119 5.3420000076293945,8.220999717712402 5.3420000076293945,8.220999717712402 C5.3420000076293945,8.220999717712402 0,6.321000099182129 0,6.321000099182129z"
                ></path>
              </g>
              <g
                opacity="1"
                transform="matrix(1,0,0,1,517.5349731445312,227.12399291992188)"
              >
                <path
                  fill="rgb(255,193,84)"
                  fill-opacity="1"
                  d=" M0,6.321000099182129 C0,6.321000099182129 -5.3420000076293945,8.220999717712402 -5.3420000076293945,8.220999717712402 C-5.3420000076293945,8.220999717712402 -5.186999797821045,2.552999973297119 -5.186999797821045,2.552999973297119 C-5.186999797821045,2.552999973297119 -8.644000053405762,-1.940999984741211 -8.644000053405762,-1.940999984741211 C-8.644000053405762,-1.940999984741211 -3.2049999237060547,-3.5439999103546143 -3.2049999237060547,-3.5439999103546143 C-3.2049999237060547,-3.5439999103546143 0,-8.220999717712402 0,-8.220999717712402 C0,-8.220999717712402 3.2049999237060547,-3.5439999103546143 3.2049999237060547,-3.5439999103546143 C3.2049999237060547,-3.5439999103546143 8.644000053405762,-1.940999984741211 8.644000053405762,-1.940999984741211 C8.644000053405762,-1.940999984741211 5.185999870300293,2.552999973297119 5.185999870300293,2.552999973297119 C5.185999870300293,2.552999973297119 5.3420000076293945,8.220999717712402 5.3420000076293945,8.220999717712402 C5.3420000076293945,8.220999717712402 0,6.321000099182129 0,6.321000099182129z"
                ></path>
              </g>
              <g
                opacity="1"
                transform="matrix(1,0,0,1,541.1539916992188,227.12399291992188)"
              >
                <path
                  fill="rgb(255,193,84)"
                  fill-opacity="1"
                  d=" M0,6.321000099182129 C0,6.321000099182129 -5.3420000076293945,8.220999717712402 -5.3420000076293945,8.220999717712402 C-5.3420000076293945,8.220999717712402 -5.185999870300293,2.552999973297119 -5.185999870300293,2.552999973297119 C-5.185999870300293,2.552999973297119 -8.644000053405762,-1.940999984741211 -8.644000053405762,-1.940999984741211 C-8.644000053405762,-1.940999984741211 -3.2060000896453857,-3.5439999103546143 -3.2060000896453857,-3.5439999103546143 C-3.2060000896453857,-3.5439999103546143 0,-8.220999717712402 0,-8.220999717712402 C0,-8.220999717712402 3.2049999237060547,-3.5439999103546143 3.2049999237060547,-3.5439999103546143 C3.2049999237060547,-3.5439999103546143 8.644000053405762,-1.940999984741211 8.644000053405762,-1.940999984741211 C8.644000053405762,-1.940999984741211 5.185999870300293,2.552999973297119 5.185999870300293,2.552999973297119 C5.185999870300293,2.552999973297119 5.3420000076293945,8.220999717712402 5.3420000076293945,8.220999717712402 C5.3420000076293945,8.220999717712402 0,6.321000099182129 0,6.321000099182129z"
                ></path>
              </g>
              <g
                opacity="1"
                transform="matrix(1,0,0,1,564.7730102539062,227.12399291992188)"
              >
                <path
                  fill="rgb(255,193,84)"
                  fill-opacity="1"
                  d=" M0,6.321000099182129 C0,6.321000099182129 -5.3420000076293945,8.220999717712402 -5.3420000076293945,8.220999717712402 C-5.3420000076293945,8.220999717712402 -5.185999870300293,2.552999973297119 -5.185999870300293,2.552999973297119 C-5.185999870300293,2.552999973297119 -8.644000053405762,-1.940999984741211 -8.644000053405762,-1.940999984741211 C-8.644000053405762,-1.940999984741211 -3.2049999237060547,-3.5439999103546143 -3.2049999237060547,-3.5439999103546143 C-3.2049999237060547,-3.5439999103546143 0,-8.220999717712402 0,-8.220999717712402 C0,-8.220999717712402 3.2049999237060547,-3.5439999103546143 3.2049999237060547,-3.5439999103546143 C3.2049999237060547,-3.5439999103546143 8.644000053405762,-1.940999984741211 8.644000053405762,-1.940999984741211 C8.644000053405762,-1.940999984741211 5.185999870300293,2.552999973297119 5.185999870300293,2.552999973297119 C5.185999870300293,2.552999973297119 5.3420000076293945,8.220999717712402 5.3420000076293945,8.220999717712402 C5.3420000076293945,8.220999717712402 0,6.321000099182129 0,6.321000099182129z"
                ></path>
              </g>
              <g
                opacity="1"
                transform="matrix(1,0,0,1,588.3920288085938,227.12399291992188)"
              >
                <path
                  fill="rgb(255,255,255)"
                  fill-opacity="1"
                  d=" M0,6.321000099182129 C0,6.321000099182129 -5.3420000076293945,8.220999717712402 -5.3420000076293945,8.220999717712402 C-5.3420000076293945,8.220999717712402 -5.185999870300293,2.552999973297119 -5.185999870300293,2.552999973297119 C-5.185999870300293,2.552999973297119 -8.644000053405762,-1.940999984741211 -8.644000053405762,-1.940999984741211 C-8.644000053405762,-1.940999984741211 -3.2049999237060547,-3.5439999103546143 -3.2049999237060547,-3.5439999103546143 C-3.2049999237060547,-3.5439999103546143 0,-8.220999717712402 0,-8.220999717712402 C0,-8.220999717712402 3.2049999237060547,-3.5439999103546143 3.2049999237060547,-3.5439999103546143 C3.2049999237060547,-3.5439999103546143 8.644000053405762,-1.940999984741211 8.644000053405762,-1.940999984741211 C8.644000053405762,-1.940999984741211 5.186999797821045,2.552999973297119 5.186999797821045,2.552999973297119 C5.186999797821045,2.552999973297119 5.3420000076293945,8.220999717712402 5.3420000076293945,8.220999717712402 C5.3420000076293945,8.220999717712402 0,6.321000099182129 0,6.321000099182129z"
                ></path>
              </g>
            </g>
          </g>
        </g>
      </svg>